<svg xmlns="http://www.w3.org/2000/svg" width="196.491" height="59.096" viewBox="0 0 196.491 59.096">
  <g id="Group_2066" data-name="Group 2066" transform="translate(-396.626 -2517.221)">
    <path id="Path_5262" data-name="Path 5262" d="M-1922.278,931.55H-2096.07a11.35,11.35,0,0,0-11.35,11.35v36.395a11.351,11.351,0,0,0,11.35,11.352h173.792a11.35,11.35,0,0,0,11.35-11.352V942.9a11.349,11.349,0,0,0-11.35-11.35Z" transform="translate(2504.046 1585.671)" fill="#fafcfc"/>
    <path id="Path_5263" data-name="Path 5263" d="M-1961.4,1058.414c-.946-4.8,3.233-7.371,3.538-7.551A7.847,7.847,0,0,0-1960,1048.9a8.467,8.467,0,0,0-7.349-.906l-.054.024a6.919,6.919,0,0,1-5.54,0l-.055-.024a8.466,8.466,0,0,0-7.349.906c-2.5,1.555-4.924,5.068-3.694,11.8a20.923,20.923,0,0,0,5.721,10.825,4.864,4.864,0,0,0,4.961.617,8.074,8.074,0,0,1,2.922-.9c.176,0,.35,0,.526,0a8.07,8.07,0,0,1,2.922.9,4.864,4.864,0,0,0,4.961-.617,20.834,20.834,0,0,0,4.894-7.75,7.32,7.32,0,0,1-4.267-5.358Z" transform="translate(2403.33 1490.755)" fill="#191919"/>
    <path id="Path_5264" data-name="Path 5264" d="M-1910.636,1013.044s-.79-6.712,6.77-7.914l-.031.9a7.278,7.278,0,0,1-6.74,7.014Z" transform="translate(2343 1525.447)" fill="#191919"/>
    <path id="Path_5265" data-name="Path 5265" d="M-1777.828,995.055a5.584,5.584,0,0,0-.218-1.594,3.38,3.38,0,0,0-.67-1.267,3.085,3.085,0,0,0-1.145-.835,4.471,4.471,0,0,0-1.766-.3h-1.514v8.19h1.523a5.1,5.1,0,0,0,1.7-.249,2.754,2.754,0,0,0,1.16-.764,3.319,3.319,0,0,0,.7-1.305,6.705,6.705,0,0,0,.232-1.877Zm1-.045a6.981,6.981,0,0,1-.312,2.189,4.139,4.139,0,0,1-.92,1.586,3.88,3.88,0,0,1-1.5.966,6.2,6.2,0,0,1-2.136.329h-1.94a.486.486,0,0,1-.281-.1.433.433,0,0,1-.145-.376v-8.89a.435.435,0,0,1,.145-.378.5.5,0,0,1,.281-.1h2.071a5.772,5.772,0,0,1,2.12.343,3.894,3.894,0,0,1,1.445.969,4.141,4.141,0,0,1,.88,1.507,6.1,6.1,0,0,1,.3,1.96Z" transform="translate(2239.387 1537.642)" fill="#191919"/>
    <path id="Path_5266" data-name="Path 5266" d="M-1730.031,1007.887a5.341,5.341,0,0,0-.114-1.12,2.745,2.745,0,0,0-.381-.938,1.912,1.912,0,0,0-.715-.648,2.354,2.354,0,0,0-1.118-.24,2.386,2.386,0,0,0-1.066.221,1.966,1.966,0,0,0-.735.612,2.681,2.681,0,0,0-.423.926,4.613,4.613,0,0,0-.136,1.149,5.433,5.433,0,0,0,.115,1.131,2.663,2.663,0,0,0,.379.938,1.892,1.892,0,0,0,.715.641,2.407,2.407,0,0,0,1.12.236,2.4,2.4,0,0,0,1.065-.221,1.969,1.969,0,0,0,.733-.608,2.643,2.643,0,0,0,.423-.922,4.66,4.66,0,0,0,.138-1.156Zm.958-.083a5.136,5.136,0,0,1-.212,1.514,3.472,3.472,0,0,1-.637,1.2,2.894,2.894,0,0,1-1.053.8,3.536,3.536,0,0,1-1.47.285,3.629,3.629,0,0,1-1.41-.254,2.665,2.665,0,0,1-1.013-.732,3.121,3.121,0,0,1-.61-1.153,5.371,5.371,0,0,1-.2-1.53,5.2,5.2,0,0,1,.21-1.514,3.37,3.37,0,0,1,.632-1.2,2.88,2.88,0,0,1,1.053-.788,3.619,3.619,0,0,1,1.478-.281,3.68,3.68,0,0,1,1.412.25,2.621,2.621,0,0,1,1.008.728,3.194,3.194,0,0,1,.61,1.153,5.273,5.273,0,0,1,.205,1.523Z" transform="translate(2199.78 1526.249)" fill="#191919"/>
    <path id="Path_5267" data-name="Path 5267" d="M-1682.927,1004.793a.322.322,0,0,1-.013.087c-.007.033-.016.069-.025.111l-2.131,6.705a.192.192,0,0,1-.058.1.293.293,0,0,1-.111.062.794.794,0,0,1-.178.031c-.074.005-.162.007-.263.007s-.2,0-.274-.011a1.163,1.163,0,0,1-.187-.034.315.315,0,0,1-.112-.062.2.2,0,0,1-.058-.091l-1.6-5.435-.016-.062-.015.062-1.492,5.435a.187.187,0,0,1-.062.1.311.311,0,0,1-.125.062,1.017,1.017,0,0,1-.194.031c-.076.005-.161.007-.258.007a2.592,2.592,0,0,1-.26-.011,1.1,1.1,0,0,1-.178-.034.277.277,0,0,1-.111-.062.222.222,0,0,1-.054-.091l-2.115-6.705a.486.486,0,0,1-.034-.107.463.463,0,0,1-.011-.091.184.184,0,0,1,.022-.093.138.138,0,0,1,.076-.056.6.6,0,0,1,.138-.027c.054-.005.123-.007.205-.007a2.469,2.469,0,0,1,.258.011.581.581,0,0,1,.149.035.165.165,0,0,1,.073.062.47.47,0,0,1,.038.091l1.819,6.013.015.053.016-.053,1.652-6.013a.282.282,0,0,1,.042-.091.2.2,0,0,1,.076-.062.565.565,0,0,1,.136-.035,1.9,1.9,0,0,1,.225-.011,1.694,1.694,0,0,1,.212.011.663.663,0,0,1,.138.035.177.177,0,0,1,.076.062.468.468,0,0,1,.038.091l1.781,6.013.015.053.007-.053,1.811-6.013a.329.329,0,0,1,.044-.091.178.178,0,0,1,.08-.062.626.626,0,0,1,.147-.035,2.3,2.3,0,0,1,.249-.011c.08,0,.147,0,.2.007a.383.383,0,0,1,.122.031.122.122,0,0,1,.06.056.211.211,0,0,1,.016.089Z" transform="translate(2164.733 1525.872)" fill="#191919"/>
    <path id="Path_5268" data-name="Path 5268" d="M-1622.913,1011.32a.149.149,0,0,1-.024.083.155.155,0,0,1-.073.062.636.636,0,0,1-.136.038,1.433,1.433,0,0,1-.218.015,1.485,1.485,0,0,1-.223-.015.659.659,0,0,1-.138-.038.174.174,0,0,1-.073-.062.162.162,0,0,1-.022-.083v-4.088a4.379,4.379,0,0,0-.1-1.038,2.074,2.074,0,0,0-.3-.686,1.381,1.381,0,0,0-.507-.441,1.576,1.576,0,0,0-.719-.156,1.809,1.809,0,0,0-1.051.374,5.668,5.668,0,0,0-1.1,1.1v4.939a.149.149,0,0,1-.024.083.159.159,0,0,1-.071.062.7.7,0,0,1-.138.038,1.489,1.489,0,0,1-.225.015,1.43,1.43,0,0,1-.216-.015.779.779,0,0,1-.142-.038.142.142,0,0,1-.071-.062.183.183,0,0,1-.02-.083v-6.888a.183.183,0,0,1,.02-.083.157.157,0,0,1,.071-.065.543.543,0,0,1,.134-.038,1.609,1.609,0,0,1,.209-.011,1.669,1.669,0,0,1,.212.011.432.432,0,0,1,.131.038.156.156,0,0,1,.064.065.186.186,0,0,1,.02.083v.975a4.287,4.287,0,0,1,1.164-.96,2.444,2.444,0,0,1,1.135-.3,2.563,2.563,0,0,1,1.142.229,2.022,2.022,0,0,1,.75.615,2.51,2.51,0,0,1,.412.906,5.385,5.385,0,0,1,.125,1.249v4.171Z" transform="translate(2112.055 1526.249)" fill="#191919"/>
    <path id="Path_5269" data-name="Path 5269" d="M-1582.974,996.489a.165.165,0,0,1-.024.083.165.165,0,0,1-.073.062.636.636,0,0,1-.136.038,1.493,1.493,0,0,1-.225.015,1.449,1.449,0,0,1-.218-.015.709.709,0,0,1-.14-.038.139.139,0,0,1-.073-.062.182.182,0,0,1-.018-.083V986.23a.19.19,0,0,1,.018-.085.15.15,0,0,1,.073-.063.417.417,0,0,1,.14-.038,1.782,1.782,0,0,1,.218-.013,1.843,1.843,0,0,1,.225.013.384.384,0,0,1,.136.038.181.181,0,0,1,.073.063.172.172,0,0,1,.024.085v10.259Z" transform="translate(2075.534 1541.08)" fill="#191919"/>
    <path id="Path_5270" data-name="Path 5270" d="M-1562.093,1007.887a5.341,5.341,0,0,0-.114-1.12,2.745,2.745,0,0,0-.379-.938,1.912,1.912,0,0,0-.715-.648,2.361,2.361,0,0,0-1.12-.24,2.4,2.4,0,0,0-1.065.221,1.965,1.965,0,0,0-.735.612,2.711,2.711,0,0,0-.421.926,4.533,4.533,0,0,0-.138,1.149,5.433,5.433,0,0,0,.114,1.131,2.7,2.7,0,0,0,.381.938,1.894,1.894,0,0,0,.715.641,2.4,2.4,0,0,0,1.118.236,2.385,2.385,0,0,0,1.066-.221,1.99,1.99,0,0,0,.735-.608,2.675,2.675,0,0,0,.423-.922,4.668,4.668,0,0,0,.136-1.156Zm.96-.083a5.076,5.076,0,0,1-.214,1.514,3.474,3.474,0,0,1-.635,1.2,2.9,2.9,0,0,1-1.055.8,3.528,3.528,0,0,1-1.469.285,3.638,3.638,0,0,1-1.412-.254,2.674,2.674,0,0,1-1.011-.732,3.1,3.1,0,0,1-.61-1.153,5.371,5.371,0,0,1-.2-1.53,5.2,5.2,0,0,1,.209-1.514,3.372,3.372,0,0,1,.632-1.2,2.884,2.884,0,0,1,1.055-.788,3.613,3.613,0,0,1,1.478-.281,3.665,3.665,0,0,1,1.41.25,2.613,2.613,0,0,1,1.009.728,3.161,3.161,0,0,1,.608,1.153,5.2,5.2,0,0,1,.207,1.523Z" transform="translate(2062.324 1526.249)" fill="#191919"/>
    <path id="Path_5271" data-name="Path 5271" d="M-1518.39,1008.069h-1.256a4.172,4.172,0,0,0-.96.1,2.019,2.019,0,0,0-.684.289,1.214,1.214,0,0,0-.407.457,1.343,1.343,0,0,0-.134.608,1.241,1.241,0,0,0,.378.948,1.489,1.489,0,0,0,1.062.354,1.937,1.937,0,0,0,1.007-.278,4.517,4.517,0,0,0,.995-.855v-1.623Zm.906,3.251a.142.142,0,0,1-.051.118.3.3,0,0,1-.129.06.96.96,0,0,1-.216.02,1.1,1.1,0,0,1-.221-.02.341.341,0,0,1-.142-.06.145.145,0,0,1-.049-.118v-.77a3.448,3.448,0,0,1-1.024.777,2.592,2.592,0,0,1-1.16.274,3.094,3.094,0,0,1-.971-.142,2,2,0,0,1-.726-.4,1.766,1.766,0,0,1-.458-.635,2.1,2.1,0,0,1-.16-.837,2,2,0,0,1,.236-.993,2,2,0,0,1,.67-.7,3.23,3.23,0,0,1,1.042-.423,6,6,0,0,1,1.356-.142h1.1v-.594a2.959,2.959,0,0,0-.093-.779,1.359,1.359,0,0,0-.3-.568,1.239,1.239,0,0,0-.534-.341,2.437,2.437,0,0,0-.8-.114,2.871,2.871,0,0,0-.822.109,4.047,4.047,0,0,0-.639.249c-.183.091-.334.172-.454.247a.59.59,0,0,1-.254.111.208.208,0,0,1-.083-.016.137.137,0,0,1-.065-.056.274.274,0,0,1-.038-.107.948.948,0,0,1-.011-.156,1.067,1.067,0,0,1,.024-.254.407.407,0,0,1,.118-.191,1.5,1.5,0,0,1,.338-.225,4.323,4.323,0,0,1,.559-.24,4.733,4.733,0,0,1,.682-.178,3.97,3.97,0,0,1,.73-.069,3.616,3.616,0,0,1,1.194.171,1.928,1.928,0,0,1,.788.492,1.819,1.819,0,0,1,.43.788,3.959,3.959,0,0,1,.131,1.062v4.658Z" transform="translate(2025.533 1526.249)" fill="#191919"/>
    <path id="Path_5272" data-name="Path 5272" d="M-1477.134,991.691a5.558,5.558,0,0,0-1.1-1.058,1.928,1.928,0,0,0-1.109-.365,1.572,1.572,0,0,0-.9.25,1.966,1.966,0,0,0-.61.663,3.185,3.185,0,0,0-.343.927,5.212,5.212,0,0,0-.105,1.051,6.742,6.742,0,0,0,.091,1.111,3.254,3.254,0,0,0,.312.964,1.867,1.867,0,0,0,.586.677,1.552,1.552,0,0,0,.913.254,1.874,1.874,0,0,0,.534-.076,2.122,2.122,0,0,0,.532-.25,3.818,3.818,0,0,0,.568-.452,7.539,7.539,0,0,0,.626-.69v-3.006Zm.906,4.97a.2.2,0,0,1-.018.091.146.146,0,0,1-.069.062.559.559,0,0,1-.125.034,1.394,1.394,0,0,1-.191.011,1.535,1.535,0,0,1-.2-.011.568.568,0,0,1-.129-.034.2.2,0,0,1-.076-.062.154.154,0,0,1-.027-.091v-.989a4.831,4.831,0,0,1-1.134.931,2.5,2.5,0,0,1-1.278.339,2.6,2.6,0,0,1-1.271-.289,2.435,2.435,0,0,1-.857-.784,3.443,3.443,0,0,1-.483-1.162,6.307,6.307,0,0,1-.152-1.41,6.053,6.053,0,0,1,.191-1.581,3.488,3.488,0,0,1,.563-1.2,2.516,2.516,0,0,1,.92-.76,2.878,2.878,0,0,1,1.272-.267,2.382,2.382,0,0,1,1.142.278,3.965,3.965,0,0,1,1.018.818v-4.149a.189.189,0,0,1,.02-.083.13.13,0,0,1,.073-.06.526.526,0,0,1,.14-.038,1.229,1.229,0,0,1,.218-.016,1.288,1.288,0,0,1,.225.016.478.478,0,0,1,.136.038.161.161,0,0,1,.073.06.17.17,0,0,1,.022.083v10.223Z" transform="translate(1992.343 1540.908)" fill="#191919"/>
    <path id="Path_5273" data-name="Path 5273" d="M-1412.861,1007.887a5.332,5.332,0,0,0-.115-1.12,2.745,2.745,0,0,0-.381-.938,1.913,1.913,0,0,0-.715-.648,2.355,2.355,0,0,0-1.118-.24,2.39,2.39,0,0,0-1.065.221,1.965,1.965,0,0,0-.735.612,2.711,2.711,0,0,0-.423.926,4.613,4.613,0,0,0-.136,1.149,5.425,5.425,0,0,0,.114,1.131,2.733,2.733,0,0,0,.379.938,1.908,1.908,0,0,0,.715.641,2.409,2.409,0,0,0,1.12.236,2.4,2.4,0,0,0,1.065-.221,1.991,1.991,0,0,0,.735-.608,2.674,2.674,0,0,0,.421-.922,4.581,4.581,0,0,0,.138-1.156Zm.958-.083a5.136,5.136,0,0,1-.212,1.514,3.5,3.5,0,0,1-.635,1.2,2.918,2.918,0,0,1-1.055.8,3.534,3.534,0,0,1-1.469.285,3.631,3.631,0,0,1-1.412-.254,2.68,2.68,0,0,1-1.013-.732,3.1,3.1,0,0,1-.608-1.153,5.3,5.3,0,0,1-.2-1.53,5.2,5.2,0,0,1,.211-1.514,3.368,3.368,0,0,1,.632-1.2,2.883,2.883,0,0,1,1.055-.788,3.609,3.609,0,0,1,1.476-.281,3.674,3.674,0,0,1,1.412.25,2.619,2.619,0,0,1,1.007.728,3.166,3.166,0,0,1,.61,1.153,5.264,5.264,0,0,1,.205,1.523Z" transform="translate(1940.18 1526.249)" fill="#191919"/>
    <path id="Path_5274" data-name="Path 5274" d="M-1365.325,1011.32a.164.164,0,0,1-.022.083.165.165,0,0,1-.073.062.636.636,0,0,1-.136.038,1.45,1.45,0,0,1-.218.015,1.529,1.529,0,0,1-.225-.015.638.638,0,0,1-.136-.038.164.164,0,0,1-.073-.062.164.164,0,0,1-.022-.083v-4.088a4.479,4.479,0,0,0-.1-1.038,2.044,2.044,0,0,0-.3-.686,1.36,1.36,0,0,0-.5-.441,1.59,1.59,0,0,0-.721-.156,1.8,1.8,0,0,0-1.049.374,5.668,5.668,0,0,0-1.1,1.1v4.939a.149.149,0,0,1-.024.083.165.165,0,0,1-.073.062.639.639,0,0,1-.136.038,1.5,1.5,0,0,1-.225.015,1.431,1.431,0,0,1-.216-.015.737.737,0,0,1-.142-.038.14.14,0,0,1-.073-.062.183.183,0,0,1-.018-.083v-6.888a.183.183,0,0,1,.018-.083.153.153,0,0,1,.073-.065.549.549,0,0,1,.133-.038,1.637,1.637,0,0,1,.21-.011,1.708,1.708,0,0,1,.212.011.406.406,0,0,1,.129.038.16.16,0,0,1,.065.065.183.183,0,0,1,.02.083v.975a4.258,4.258,0,0,1,1.164-.96,2.443,2.443,0,0,1,1.134-.3,2.569,2.569,0,0,1,1.142.229,2.036,2.036,0,0,1,.75.615,2.506,2.506,0,0,1,.41.906,5.385,5.385,0,0,1,.125,1.249v4.171Z" transform="translate(1901.221 1526.249)" fill="#191919"/>
    <path id="Path_5275" data-name="Path 5275" d="M-1307.958,1002.944a1.009,1.009,0,0,1-.027.26.348.348,0,0,1-.084.156.564.564,0,0,1-.167.107,1.559,1.559,0,0,1-.256.083,3.017,3.017,0,0,1-.3.053,2.647,2.647,0,0,1-.312.02,2.4,2.4,0,0,1-.868-.138,1.371,1.371,0,0,1-.586-.414,1.74,1.74,0,0,1-.332-.7,4.413,4.413,0,0,1-.1-1.005v-4.284h-1.027a.194.194,0,0,1-.169-.1.543.543,0,0,1-.06-.285.924.924,0,0,1,.015-.171.428.428,0,0,1,.045-.123.207.207,0,0,1,.073-.071.189.189,0,0,1,.1-.024h1.027v-1.69a.182.182,0,0,1,.018-.084.161.161,0,0,1,.073-.065.565.565,0,0,1,.142-.038,1.8,1.8,0,0,1,.216-.011,1.875,1.875,0,0,1,.225.011.478.478,0,0,1,.136.038.172.172,0,0,1,.073.065.149.149,0,0,1,.024.084v1.69h1.9a.189.189,0,0,1,.1.024.188.188,0,0,1,.071.071.378.378,0,0,1,.047.123.913.913,0,0,1,.015.171.5.5,0,0,1-.065.285.194.194,0,0,1-.163.1h-1.9v4.162a2.539,2.539,0,0,0,.225,1.2.849.849,0,0,0,.817.41,1.345,1.345,0,0,0,.332-.038,2.119,2.119,0,0,0,.261-.083c.076-.031.142-.058.194-.083a.337.337,0,0,1,.142-.038.175.175,0,0,1,.069.014.114.114,0,0,1,.049.058.518.518,0,0,1,.031.105,1.027,1.027,0,0,1,.011.163Z" transform="translate(1853.208 1534.213)" fill="#191919"/>
    <path id="Path_5276" data-name="Path 5276" d="M-1273.075,996.489a.163.163,0,0,1-.022.083.176.176,0,0,1-.073.062.636.636,0,0,1-.136.038,1.442,1.442,0,0,1-.218.015,1.518,1.518,0,0,1-.225-.015.636.636,0,0,1-.136-.038.165.165,0,0,1-.073-.062.166.166,0,0,1-.024-.083V992.4a4.492,4.492,0,0,0-.1-1.038,2.044,2.044,0,0,0-.3-.686,1.359,1.359,0,0,0-.5-.441,1.59,1.59,0,0,0-.721-.156,1.8,1.8,0,0,0-1.049.374,5.662,5.662,0,0,0-1.1,1.1v4.939a.165.165,0,0,1-.024.083.165.165,0,0,1-.073.062.633.633,0,0,1-.136.038,1.5,1.5,0,0,1-.225.015,1.424,1.424,0,0,1-.216-.015.735.735,0,0,1-.142-.038.14.14,0,0,1-.073-.062.182.182,0,0,1-.018-.083V986.23a.19.19,0,0,1,.018-.085.151.151,0,0,1,.073-.063.43.43,0,0,1,.142-.038,1.751,1.751,0,0,1,.216-.013,1.846,1.846,0,0,1,.225.013.382.382,0,0,1,.136.038.181.181,0,0,1,.073.063.172.172,0,0,1,.024.085v4.3a4.114,4.114,0,0,1,1.125-.919,2.438,2.438,0,0,1,1.127-.292,2.569,2.569,0,0,1,1.142.229,2.036,2.036,0,0,1,.75.615,2.506,2.506,0,0,1,.41.906,5.386,5.386,0,0,1,.125,1.249v4.171Z" transform="translate(1825.715 1541.08)" fill="#191919"/>
    <path id="Path_5277" data-name="Path 5277" d="M-1231.53,1007.256a2.481,2.481,0,0,0-.5-1.714,1.9,1.9,0,0,0-1.53-.615,2.009,2.009,0,0,0-.909.194,2.011,2.011,0,0,0-.661.514,2.246,2.246,0,0,0-.416.741,3.19,3.19,0,0,0-.167.88Zm.937.267a.433.433,0,0,1-.145.376.486.486,0,0,1-.281.1h-4.7a4.911,4.911,0,0,0,.125,1.156,2.3,2.3,0,0,0,.414.888,1.889,1.889,0,0,0,.755.566,2.9,2.9,0,0,0,1.142.2,3.971,3.971,0,0,0,.858-.083,5.034,5.034,0,0,0,.659-.187c.185-.069.338-.131.457-.187a.74.74,0,0,1,.254-.083.15.15,0,0,1,.083.024.155.155,0,0,1,.062.073.473.473,0,0,1,.035.125,1.376,1.376,0,0,1,.011.191.605.605,0,0,1-.007.1.69.69,0,0,1-.02.093.282.282,0,0,1-.034.08.368.368,0,0,1-.06.076,1.16,1.16,0,0,1-.236.133,3.653,3.653,0,0,1-.517.191,7.033,7.033,0,0,1-.742.171,5.124,5.124,0,0,1-.909.076,3.883,3.883,0,0,1-1.416-.24,2.647,2.647,0,0,1-1.035-.708,3.085,3.085,0,0,1-.635-1.16,5.372,5.372,0,0,1-.218-1.606,5.045,5.045,0,0,1,.225-1.568,3.344,3.344,0,0,1,.643-1.176,2.792,2.792,0,0,1,1.009-.739,3.286,3.286,0,0,1,1.312-.254,3.065,3.065,0,0,1,1.325.26,2.516,2.516,0,0,1,.9.7,2.827,2.827,0,0,1,.519,1.017,4.456,4.456,0,0,1,.163,1.218v.183Z" transform="translate(1791.363 1526.249)" fill="#191919"/>
    <path id="Path_5278" data-name="Path 5278" d="M-1682.947,1111.162a5.318,5.318,0,0,1-.566,1.537,3.108,3.108,0,0,1-.96,1.049,2.359,2.359,0,0,1-1.37.383,2.882,2.882,0,0,1-1.7-.579,9.754,9.754,0,0,1-1.759-1.694v-5a10.8,10.8,0,0,1,.977-1.065,6.565,6.565,0,0,1,.949-.753,3.316,3.316,0,0,1,.842-.4,3.038,3.038,0,0,1,.837-.118,2.386,2.386,0,0,1,1.381.372,2.828,2.828,0,0,1,.895,1.04,5.312,5.312,0,0,1,.5,1.568,11.307,11.307,0,0,1,.156,1.9,8.529,8.529,0,0,1-.187,1.763Zm2.365-4.574a6.368,6.368,0,0,0-.9-2.16,4.59,4.59,0,0,0-1.645-1.5,5.017,5.017,0,0,0-2.421-.55,5.123,5.123,0,0,0-1.234.145,4.691,4.691,0,0,0-1.138.452,6.92,6.92,0,0,0-1.078.744c-.141.118-.287.245-.437.381v-1.723h-2.234v18.2h2.369v-5.729c.107.094.212.182.314.265a6.44,6.44,0,0,0,.957.643,4.294,4.294,0,0,0,1.011.39,4.621,4.621,0,0,0,1.1.125,5.464,5.464,0,0,0,2.407-.515,4.938,4.938,0,0,0,1.781-1.459,6.594,6.594,0,0,0,1.071-2.251,11.028,11.028,0,0,0,.354-2.9,11.649,11.649,0,0,0-.271-2.557Z" transform="translate(2163.759 1445.849)" fill="#191919"/>
    <path id="Path_5279" data-name="Path 5279" d="M-1604.407,1111.162a5.318,5.318,0,0,1-.566,1.537,3.086,3.086,0,0,1-.958,1.049,2.367,2.367,0,0,1-1.37.383,2.881,2.881,0,0,1-1.7-.579,9.707,9.707,0,0,1-1.759-1.694v-5a10.813,10.813,0,0,1,.975-1.065,6.68,6.68,0,0,1,.949-.753,3.3,3.3,0,0,1,.844-.4,3.027,3.027,0,0,1,.837-.118,2.38,2.38,0,0,1,1.379.372,2.83,2.83,0,0,1,.895,1.04,5.359,5.359,0,0,1,.506,1.568,11.479,11.479,0,0,1,.154,1.9,8.521,8.521,0,0,1-.187,1.763Zm2.367-4.574a6.442,6.442,0,0,0-.9-2.16,4.62,4.62,0,0,0-1.645-1.5,5.03,5.03,0,0,0-2.423-.55,5.107,5.107,0,0,0-1.232.145,4.7,4.7,0,0,0-1.14.452,7.09,7.09,0,0,0-1.078.744q-.212.177-.436.381v-1.723h-2.236v18.2h2.37v-5.729c.105.094.211.182.312.265a6.46,6.46,0,0,0,.958.643,4.251,4.251,0,0,0,1.009.39,4.632,4.632,0,0,0,1.1.125,5.472,5.472,0,0,0,2.409-.515,4.931,4.931,0,0,0,1.779-1.459,6.523,6.523,0,0,0,1.071-2.251,11.02,11.02,0,0,0,.356-2.9,11.664,11.664,0,0,0-.27-2.557Z" transform="translate(2099.475 1445.849)" fill="#191919"/>
    <path id="Path_5280" data-name="Path 5280" d="M-1378.779,1109.346a7.8,7.8,0,0,1-.229,1.94,4.286,4.286,0,0,1-.681,1.488,3.126,3.126,0,0,1-1.151.953,3.866,3.866,0,0,1-1.7.349,3.861,3.861,0,0,1-1.79-.37,2.969,2.969,0,0,1-1.116-1,4.4,4.4,0,0,1-.615-1.521,9.261,9.261,0,0,1-.192-1.91,7.827,7.827,0,0,1,.229-1.927,4.389,4.389,0,0,1,.682-1.5,3.072,3.072,0,0,1,1.151-.958,3.832,3.832,0,0,1,1.7-.349,3.783,3.783,0,0,1,1.788.376,2.986,2.986,0,0,1,1.116,1.009,4.447,4.447,0,0,1,.615,1.523,8.975,8.975,0,0,1,.192,1.89Zm.938-5.108a4.976,4.976,0,0,0-1.922-1.387,6.84,6.84,0,0,0-2.634-.472,6.763,6.763,0,0,0-2.757.528,5.48,5.48,0,0,0-2,1.494,6.329,6.329,0,0,0-1.185,2.245,9.6,9.6,0,0,0-.385,2.779,9.851,9.851,0,0,0,.372,2.8,5.865,5.865,0,0,0,1.149,2.171,5.093,5.093,0,0,0,1.926,1.392,6.775,6.775,0,0,0,2.636.479,6.655,6.655,0,0,0,2.746-.537,5.5,5.5,0,0,0,1.995-1.507,6.533,6.533,0,0,0,1.191-2.251,9.479,9.479,0,0,0,.392-2.779,9.609,9.609,0,0,0-.379-2.793,6.009,6.009,0,0,0-1.147-2.167Z" transform="translate(1915.798 1445.849)" fill="#191919"/>
    <path id="Path_5281" data-name="Path 5281" d="M-1780.107,1091.423l2.735-7.8,2.8,7.8Zm4.226-10.533h-2.817l-5.872,17.766h2.4l1.307-5.091h7.063l1.354,5.091h2.434l-5.872-17.766Z" transform="translate(2239.796 1463.438)" fill="#191919"/>
    <path id="Path_5282" data-name="Path 5282" d="M-1494.205,1087.949a4.745,4.745,0,0,0-1.007-1.414,6.745,6.745,0,0,0-1.385-1.026c-.494-.274-1-.536-1.512-.775s-1-.474-1.483-.708a7.251,7.251,0,0,1-1.24-.757,3.3,3.3,0,0,1-.83-.911,2.254,2.254,0,0,1-.292-1.18,2.481,2.481,0,0,1,.167-.9,1.986,1.986,0,0,1,.49-.724,2.4,2.4,0,0,1,.844-.5,3.659,3.659,0,0,1,1.247-.191,4.5,4.5,0,0,1,1.32.176,5.957,5.957,0,0,1,1.018.408c.292.154.537.3.728.417l.98-2.046a2.585,2.585,0,0,0-.617-.4,6.446,6.446,0,0,0-.955-.4,8.461,8.461,0,0,0-1.116-.288,6.431,6.431,0,0,0-1.183-.115,6.947,6.947,0,0,0-2.135.314,4.98,4.98,0,0,0-1.708.924,4.223,4.223,0,0,0-1.12,1.488,4.727,4.727,0,0,0-.4,1.964,4.609,4.609,0,0,0,.383,1.944,4.832,4.832,0,0,0,1,1.421,6.748,6.748,0,0,0,1.37,1.029c.488.281,1,.546,1.508.786s1,.472,1.474.708a7.257,7.257,0,0,1,1.229.75,3.3,3.3,0,0,1,.822.9,2.252,2.252,0,0,1,.292,1.18,2.965,2.965,0,0,1-.241,1.227,2.444,2.444,0,0,1-.666.887,3.1,3.1,0,0,1-1.049.565,4.475,4.475,0,0,1-1.381.2,5.565,5.565,0,0,1-1.646-.218,7.985,7.985,0,0,1-1.24-.485,7.585,7.585,0,0,1-.84-.483l-.488,2.454a7.437,7.437,0,0,0,1.026.459,9.2,9.2,0,0,0,1.369.385,7.988,7.988,0,0,0,1.646.163,7.682,7.682,0,0,0,2.37-.354,5.587,5.587,0,0,0,1.913-1.046,4.783,4.783,0,0,0,1.269-1.682,5.343,5.343,0,0,0,.45-2.224,4.507,4.507,0,0,0-.385-1.926Z" transform="translate(2010.473 1466.941)" fill="#191919"/>
    <path id="Path_5283" data-name="Path 5283" d="M-1430.326,1103.219a3.73,3.73,0,0,1-.414.133,1.985,1.985,0,0,1-.486.054c-.732,0-.979-.3-1.1-.523a4.118,4.118,0,0,1-.348-1.917v-6.943h2.882V1091.9h-2.882v-2.587l-2.371,1.044v1.543h-1.285v2.127h1.285v7.157a8.031,8.031,0,0,0,.192,1.859,3.442,3.442,0,0,0,.661,1.4,2.836,2.836,0,0,0,1.193.846,4.693,4.693,0,0,0,1.666.267,5.161,5.161,0,0,0,.6-.036,5.1,5.1,0,0,0,.579-.1,2.915,2.915,0,0,0,.517-.171l-.365-2.158c-.085.042-.192.087-.319.138Z" transform="translate(1954.767 1456.547)" fill="#191919"/>
    <path id="Path_5284" data-name="Path 5284" d="M-1299.554,1102.38h-.1a3.608,3.608,0,0,0-.875.105,2.982,2.982,0,0,0-.9.407,5.2,5.2,0,0,0-.915.788c-.094.1-.192.214-.294.336v-1.635h-2.289v13.866h2.369V1107.3c.31-.492.6-.915.853-1.258a5.911,5.911,0,0,1,.753-.848,2.473,2.473,0,0,1,.628-.43,1.343,1.343,0,0,1,.554-.122c.054,0,.113,0,.182.007l.416.031v-2.289l-.378-.011Z" transform="translate(1847.217 1445.849)" fill="#191919"/>
    <path id="Path_5285" data-name="Path 5285" d="M-1261.605,1106.813a3.646,3.646,0,0,1,.661-1.182,3.185,3.185,0,0,1,1.04-.808,3.211,3.211,0,0,1,1.43-.3,2.95,2.95,0,0,1,2.4.949,3.764,3.764,0,0,1,.79,2.376h-6.556a5.064,5.064,0,0,1,.238-1.035Zm7.111,6.449c-.054.022-.111.045-.172.074-.2.093-.459.2-.773.316a8.494,8.494,0,0,1-1.109.314,6.788,6.788,0,0,1-1.43.138,4.786,4.786,0,0,1-1.859-.318,2.917,2.917,0,0,1-1.173-.88,3.7,3.7,0,0,1-.659-1.414,7.861,7.861,0,0,1-.2-1.557H-1254a1.242,1.242,0,0,0,.721-.252,1.123,1.123,0,0,0,.417-.98v-.321a8.3,8.3,0,0,0-.3-2.249,5.4,5.4,0,0,0-.984-1.928,4.89,4.89,0,0,0-1.723-1.332,5.844,5.844,0,0,0-2.5-.492,6.165,6.165,0,0,0-2.465.481,5.269,5.269,0,0,0-1.915,1.4,6.333,6.333,0,0,0-1.209,2.2,9.385,9.385,0,0,0-.414,2.88,9.9,9.9,0,0,0,.4,2.942,5.9,5.9,0,0,0,1.2,2.185,5.1,5.1,0,0,0,1.971,1.35,7.261,7.261,0,0,0,2.634.448,9.507,9.507,0,0,0,1.67-.14,13.148,13.148,0,0,0,1.347-.312c.249-.074.466-.147.655-.221v-2.338Z" transform="translate(1814.019 1445.849)" fill="#191919"/>
  </g>
</svg>
