<svg id="Component_9_1" data-name="Component 9 – 1" xmlns="http://www.w3.org/2000/svg" width="16.974" height="31.378" viewBox="0 0 16.974 31.378">
  <g id="Group_2031" data-name="Group 2031">
    <path id="Path_5030" data-name="Path 5030" d="M290.517,335.861c0-2.067-.007-4.133.007-6.2,0-.3-.081-.383-.382-.382-1.2.011-2.4.01-3.6-.019-.568-.014-.753-.216-.757-.784q-.018-2.411,0-4.821c.006-.6.244-.81.906-.816,1.148-.011,2.3-.012,3.444,0,.293,0,.383-.067.386-.375.012-1.452-.063-2.906.063-4.359a6.959,6.959,0,0,1,6.506-6.478c1.618-.127,3.239-.044,4.857-.052.554,0,.787.24.793.808q.018,2.238,0,4.478c0,.541-.2.747-.741.768-1.044.038-2.092.038-3.136.056-1.213.021-1.689.493-1.7,1.7-.01,1.02.007,2.041-.018,3.061-.008.334.108.4.413.391,1.314-.016,2.628-.008,3.941-.007.861,0,1.036.174,1.038,1.023q0,2.277,0,4.554c0,.656-.145.838-.8.851-1.377.027-2.756.036-4.133.012-.405-.007-.476.123-.475.494.014,3.955.008,7.908.008,11.863,0,1.2-.107,1.3-1.309,1.3q-2.181,0-4.363,0c-.751,0-.954-.2-.955-.954Q290.515,338.923,290.517,335.861Z" transform="translate(-285.779 -311.559)" fill="#777e90"/>
  </g>
</svg>
