<svg xmlns="http://www.w3.org/2000/svg" width="35.768" height="35.697" viewBox="0 0 35.768 35.697">
  <path id="Path_11086" data-name="Path 11086" d="M758.9,335h28.045c.035.105.105.07.175.07a4.457,4.457,0,0,1,3.44,2.984c.105.246.105.526.211.772v28.116c-.14.07-.105.211-.105.316a4.428,4.428,0,0,1-4.352,3.44h-6.7V358.658c0-.211.07-.246.246-.246h2.738c.246,0,.351-.035.456-.281.632-1.65,1.3-3.3,1.966-4.949a.577.577,0,0,0,.07-.351h-5.16c-.316,0-.386-.105-.386-.386v-3.931c0-.878.316-1.193,1.193-1.264h3.019c.246,0,.281-.07.281-.281v-4.984c0-.281-.105-.316-.351-.316h-3.966a6.681,6.681,0,0,0-6.845,6.845v3.931c0,.281-.07.386-.351.351-1.264-.035-2.527,0-3.756,0-.316,0-.351.07-.351.351v4.879c0,.281.07.351.351.351h3.826c.175,0,.316,0,.281.246v12.04H759.458a4.681,4.681,0,0,1-.983-.105A4.438,4.438,0,0,1,755,366.064V339.282a4.519,4.519,0,0,1,2.948-4.072A3.44,3.44,0,0,0,758.9,335Z" transform="translate(-755 -335)" fill="#777e90"/>
</svg>
