<svg xmlns="http://www.w3.org/2000/svg" width="196.491" height="59.096" viewBox="0 0 196.491 59.096">
  <g id="Group_2065" data-name="Group 2065" transform="translate(-135.97 -2517.221)">
    <path id="Path_5237" data-name="Path 5237" d="M-3358.308,931.55H-3532.1a11.349,11.349,0,0,0-11.35,11.35v36.395a11.351,11.351,0,0,0,11.35,11.352h173.792a11.351,11.351,0,0,0,11.35-11.352V942.9a11.35,11.35,0,0,0-11.35-11.35Z" transform="translate(3679.42 1585.671)" fill="#fafcfc"/>
    <path id="Path_5238" data-name="Path 5238" d="M-3392.554,1011.41l-5.289,5.253-15.527-15.808a2.619,2.619,0,0,1,2.692-.02l18.124,10.575Z" transform="translate(3572.95 1529.259)" fill="#191919"/>
    <path id="Path_5239" data-name="Path 5239" d="M-3394.537,1104.534l-18.254,10.651a2.629,2.629,0,0,1-3.158-.377l15.993-15.808,5.42,5.534Z" transform="translate(3575.063 1448.615)" fill="#191919"/>
    <path id="Path_5240" data-name="Path 5240" d="M-3312.467,1073.1l-5.233,3.053-.042.024-5.418-5.534,5.289-5.255.042.026,5.364,3.129a2.64,2.64,0,0,1,0,4.558Z" transform="translate(3499.115 1476.125)" fill="#191919"/>
    <path id="Path_5241" data-name="Path 5241" d="M-3424.252,1038.857l-.033-.033a2.6,2.6,0,0,1-.775-1.87V1009.5a2.608,2.608,0,0,1,1.236-2.234c.012-.009.027-.016.04-.025l15.527,15.81-15.995,15.808Z" transform="translate(3582.52 1523.72)" fill="#191919"/>
    <path id="Path_5242" data-name="Path 5242" d="M-3165.686,1084.49h-7.593v2.1h5.324a5.519,5.519,0,0,1-5.324,4.064,5.517,5.517,0,0,1-5.518-5.516,5.518,5.518,0,0,1,5.518-5.518,5.5,5.5,0,0,1,3.734,1.456l1.488-1.487a7.593,7.593,0,0,0-5.222-2.073,7.622,7.622,0,0,0-7.622,7.622,7.62,7.62,0,0,0,7.622,7.62,7.619,7.619,0,0,0,7.62-7.62c0-.22-.009-.437-.027-.652Z" transform="translate(3382.677 1466.197)" fill="#191919"/>
    <path id="Path_5243" data-name="Path 5243" d="M-3086.017,1115.1a2.779,2.779,0,0,1-2.667-2.879,2.781,2.781,0,0,1,2.667-2.881,2.781,2.781,0,0,1,2.668,2.881,2.78,2.78,0,0,1-2.668,2.879Zm0-7.861a4.889,4.889,0,0,0-4.874,4.9,4.888,4.888,0,0,0,4.874,4.9,4.888,4.888,0,0,0,4.874-4.9,4.889,4.889,0,0,0-4.874-4.9Z" transform="translate(3309.004 1441.871)" fill="#191919"/>
    <path id="Path_5244" data-name="Path 5244" d="M-3026.277,1115.1a2.781,2.781,0,0,1-2.668-2.879,2.781,2.781,0,0,1,2.668-2.881,2.781,2.781,0,0,1,2.668,2.881,2.781,2.781,0,0,1-2.668,2.879Zm0-7.861a4.889,4.889,0,0,0-4.874,4.9,4.888,4.888,0,0,0,4.874,4.9,4.888,4.888,0,0,0,4.874-4.9,4.892,4.892,0,0,0-4.874-4.9Z" transform="translate(3260.107 1441.871)" fill="#191919"/>
    <path id="Path_5245" data-name="Path 5245" d="M-2913.566,1077.52v15.4h-2.1v-15.4Z" transform="translate(3165.589 1466.197)" fill="#191919"/>
    <path id="Path_5246" data-name="Path 5246" d="M-2891.137,1109.7l-4.779,1.871a2.93,2.93,0,0,1,.229-.886,2.852,2.852,0,0,1,1.583-1.523,2.835,2.835,0,0,1,1.044-.2,2.874,2.874,0,0,1,1.924.735Zm.661,3.394a2.86,2.86,0,0,1-1.532,1.412,2.845,2.845,0,0,1-2.2-.042,2.862,2.862,0,0,1-1.12-.87l7.146-2.8-.111-.372c-.042-.138-.087-.272-.138-.4a4.942,4.942,0,0,0-2.637-2.743,4.942,4.942,0,0,0-3.8-.074,4.934,4.934,0,0,0-2.741,2.637,4.945,4.945,0,0,0-.074,3.8,4.94,4.94,0,0,0,2.637,2.741,4.954,4.954,0,0,0,1.989.419,4.993,4.993,0,0,0,1.813-.345,4.959,4.959,0,0,0,2.679-2.5l.187-.392-1.92-.841-.18.365Z" transform="translate(3151.147 1442.179)" fill="#191919"/>
    <path id="Path_5247" data-name="Path 5247" d="M-2967,1115.1a2.679,2.679,0,0,1-2.418-2.879,2.68,2.68,0,0,1,2.418-2.881,2.681,2.681,0,0,1,2.418,2.881A2.678,2.678,0,0,1-2967,1115.1Zm2.5-7.861v.864a4.1,4.1,0,0,0-2.5-.864,4.679,4.679,0,0,0-4.416,4.9,4.678,4.678,0,0,0,4.416,4.9,4.088,4.088,0,0,0,2.5-.864v1.06a2.311,2.311,0,0,1-2.421,2.287,2.669,2.669,0,0,1-2.543-1.773l-1.906.888s.717,2.8,4.64,2.8a3.991,3.991,0,0,0,3.777-2.363,5.58,5.58,0,0,0,.559-2.469v-9.375Z" transform="translate(3211.212 1441.871)" fill="#191919"/>
    <path id="Path_5248" data-name="Path 5248" d="M-2801.526,1077.52v15.4h-2.1v-15.4Z" transform="translate(3073.885 1466.197)" fill="#191919"/>
    <path id="Path_5249" data-name="Path 5249" d="M-2775.81,1077.52v2.1a2.779,2.779,0,0,1,2.666,2.881,2.779,2.779,0,0,1-2.666,2.879v1.948a4.889,4.889,0,0,0,4.874-4.9,4.89,4.89,0,0,0-4.874-4.906Z" transform="translate(3051.115 1466.197)" fill="#191919"/>
    <path id="Path_5250" data-name="Path 5250" d="M-2795.28,1079.624h3.534v-2.1h-3.534Z" transform="translate(3067.052 1466.197)" fill="#191919"/>
    <path id="Path_5251" data-name="Path 5251" d="M-2795.28,1122.788h3.534v-1.948h-3.534Z" transform="translate(3067.052 1430.74)" fill="#191919"/>
    <path id="Path_5252" data-name="Path 5252" d="M-2740.826,1077.52v15.4h-2.1v-15.4Z" transform="translate(3024.203 1466.197)" fill="#191919"/>
    <path id="Path_5253" data-name="Path 5253" d="M-2720.633,1116a1.976,1.976,0,0,1-1.047.29,1.557,1.557,0,0,1-1.078-.356,1.267,1.267,0,0,1-.4-.986,1.459,1.459,0,0,1,.14-.648,1.251,1.251,0,0,1,.443-.49,2.088,2.088,0,0,1,.75-.29,5.262,5.262,0,0,1,1.064-.094h1.1v1.719l-.036.042a4.181,4.181,0,0,1-.935.813Zm1.1.568.258-.278v1.472h1.771v-6.355a4.972,4.972,0,0,0-.212-1.534,2.271,2.271,0,0,0-.654-1.024,2.854,2.854,0,0,0-1.158-.6,6.747,6.747,0,0,0-1.746-.2,6.6,6.6,0,0,0-1.114.093,7.525,7.525,0,0,0-1,.238,5.8,5.8,0,0,0-.706.272l.113,1.664c.129-.065.276-.134.437-.205a6.479,6.479,0,0,1,.891-.316,4.274,4.274,0,0,1,1.158-.145,2.982,2.982,0,0,1,.846.105,1.314,1.314,0,0,1,.583.35,1.357,1.357,0,0,1,.312.584,2.974,2.974,0,0,1,.089.77v.686h-1.013a10.625,10.625,0,0,0-2.049.176,4.409,4.409,0,0,0-1.449.532,2.345,2.345,0,0,0-.851.889,2.685,2.685,0,0,0-.287,1.278,2.919,2.919,0,0,0,.227,1.193,2.343,2.343,0,0,0,.63.846,2.8,2.8,0,0,0,.973.519,4.225,4.225,0,0,0,1.254.176,3.5,3.5,0,0,0,1.494-.314,3.929,3.929,0,0,0,1.2-.88Z" transform="translate(3009.781 1441.2)" fill="#191919"/>
    <path id="Path_5254" data-name="Path 5254" d="M-2669,1108.15l-1.538,3.554-.944,2.185-.641-1.479-1.842-4.26h-2.292l2.989,6.908.666,1.541-1.735,4.238h2.292l1.508-3.833,1.146-2.65,2.683-6.2Z" transform="translate(2969.634 1441.126)" fill="#191919"/>
    <path id="Path_5255" data-name="Path 5255" d="M-3129,1012.994a.725.725,0,0,1-.011.136.256.256,0,0,1-.038.1.182.182,0,0,1-.062.062.144.144,0,0,1-.076.022h-3.571a.38.38,0,0,1-.218-.08.337.337,0,0,1-.112-.292v-6.881a.338.338,0,0,1,.112-.292.377.377,0,0,1,.218-.078h3.518a.14.14,0,0,1,.076.02.159.159,0,0,1,.058.062.343.343,0,0,1,.036.1.807.807,0,0,1,.011.143.738.738,0,0,1-.011.136.271.271,0,0,1-.036.1.175.175,0,0,1-.058.058.139.139,0,0,1-.076.02h-3.129v2.681h2.7a.153.153,0,0,1,.082.022.151.151,0,0,1,.058.058.33.33,0,0,1,.036.1.841.841,0,0,1,.011.145.7.7,0,0,1-.011.132.248.248,0,0,1-.036.091.149.149,0,0,1-.058.053.17.17,0,0,1-.082.018h-2.7v3.04h3.182a.16.16,0,0,1,.076.02.214.214,0,0,1,.062.06.235.235,0,0,1,.038.1,1.045,1.045,0,0,1,.011.143Z" transform="translate(3343.545 1524.988)" fill="#191919"/>
    <path id="Path_5256" data-name="Path 5256" d="M-3100.558,1006.019a.623.623,0,0,1-.013.136.307.307,0,0,1-.034.1.179.179,0,0,1-.058.058.141.141,0,0,1-.076.02h-2.274v6.865a.118.118,0,0,1-.018.065.12.12,0,0,1-.058.045.515.515,0,0,1-.113.031,1.131,1.131,0,0,1-.17.011,1.137,1.137,0,0,1-.171-.011.512.512,0,0,1-.113-.031.132.132,0,0,1-.06-.045.132.132,0,0,1-.018-.065v-6.865h-2.274a.142.142,0,0,1-.08-.02.19.19,0,0,1-.056-.058.271.271,0,0,1-.035-.1.784.784,0,0,1-.011-.136.859.859,0,0,1,.011-.143.344.344,0,0,1,.035-.1.185.185,0,0,1,.056-.062.139.139,0,0,1,.08-.02h5.267a.141.141,0,0,1,.076.02.159.159,0,0,1,.058.062.308.308,0,0,1,.034.1.567.567,0,0,1,.015.143Z" transform="translate(3321.527 1524.989)" fill="#191919"/>
    <path id="Path_5257" data-name="Path 5257" d="M-3052.74,1013.032a.119.119,0,0,1-.018.065.117.117,0,0,1-.058.045.5.5,0,0,1-.109.031,1.135,1.135,0,0,1-.174.011,1.139,1.139,0,0,1-.171-.011.513.513,0,0,1-.112-.031.132.132,0,0,1-.06-.045.135.135,0,0,1-.018-.065v-7.389a.117.117,0,0,1,.02-.064.122.122,0,0,1,.065-.047.479.479,0,0,1,.113-.029.851.851,0,0,1,.162-.013.925.925,0,0,1,.174.013.424.424,0,0,1,.109.029.111.111,0,0,1,.058.047.136.136,0,0,1,.018.064v7.389Z" transform="translate(3278.368 1525.152)" fill="#191919"/>
    <path id="Path_5258" data-name="Path 5258" d="M-3037.168,1006.019a.784.784,0,0,1-.011.136.275.275,0,0,1-.037.1.176.176,0,0,1-.058.058.141.141,0,0,1-.076.02h-2.274v6.865a.117.117,0,0,1-.018.065.116.116,0,0,1-.058.045.513.513,0,0,1-.112.031,1.142,1.142,0,0,1-.171.011,1.137,1.137,0,0,1-.171-.011.541.541,0,0,1-.113-.031.119.119,0,0,1-.058-.045.137.137,0,0,1-.018-.065v-6.865h-2.274a.14.14,0,0,1-.08-.02.19.19,0,0,1-.056-.058.271.271,0,0,1-.034-.1.75.75,0,0,1-.013-.136.682.682,0,0,1,.013-.143.344.344,0,0,1,.034-.1.185.185,0,0,1,.056-.062.137.137,0,0,1,.08-.02h5.267a.142.142,0,0,1,.076.02.159.159,0,0,1,.058.062.349.349,0,0,1,.036.1.832.832,0,0,1,.011.143Z" transform="translate(3269.644 1524.989)" fill="#191919"/>
    <path id="Path_5259" data-name="Path 5259" d="M-2986.786,1009.02a6.009,6.009,0,0,0-.127-1.271,2.947,2.947,0,0,0-.419-1.031,2.036,2.036,0,0,0-.775-.69,2.577,2.577,0,0,0-1.2-.25,2.486,2.486,0,0,0-1.193.263,2.206,2.206,0,0,0-.79.7,2.958,2.958,0,0,0-.436,1.031,5.608,5.608,0,0,0-.132,1.243,6.424,6.424,0,0,0,.122,1.292,2.9,2.9,0,0,0,.41,1.04,2.015,2.015,0,0,0,.771.692,2.6,2.6,0,0,0,1.207.25,2.489,2.489,0,0,0,1.207-.267,2.214,2.214,0,0,0,.79-.719,3.057,3.057,0,0,0,.43-1.044,5.755,5.755,0,0,0,.131-1.245Zm.764-.065a6.033,6.033,0,0,1-.209,1.652,3.5,3.5,0,0,1-.628,1.261,2.764,2.764,0,0,1-1.054.8,3.623,3.623,0,0,1-1.485.283,3.585,3.585,0,0,1-1.458-.269,2.554,2.554,0,0,1-1-.766,3.249,3.249,0,0,1-.577-1.216,6.518,6.518,0,0,1-.185-1.621,5.954,5.954,0,0,1,.207-1.625,3.391,3.391,0,0,1,.628-1.247,2.836,2.836,0,0,1,1.054-.8,3.625,3.625,0,0,1,1.488-.283,3.586,3.586,0,0,1,1.438.265,2.624,2.624,0,0,1,1.006.761,3.277,3.277,0,0,1,.59,1.2,6.322,6.322,0,0,1,.187,1.6Z" transform="translate(3228.571 1525.447)" fill="#191919"/>
    <path id="Path_5260" data-name="Path 5260" d="M-2941.088,1012.908a.423.423,0,0,1-.033.178.344.344,0,0,1-.082.114.3.3,0,0,1-.113.062.463.463,0,0,1-.114.018h-.147a.72.72,0,0,1-.214-.031.538.538,0,0,1-.189-.1,1.112,1.112,0,0,1-.183-.2,3.24,3.24,0,0,1-.2-.318l-2.686-4.761q-.2-.349-.4-.715c-.136-.247-.265-.485-.386-.717h-.006q.005.43.006.882v5.817a.119.119,0,0,1-.018.065.117.117,0,0,1-.058.045.51.51,0,0,1-.109.031,1.145,1.145,0,0,1-.174.011,1.143,1.143,0,0,1-.171-.011.513.513,0,0,1-.112-.031.117.117,0,0,1-.058-.045.119.119,0,0,1-.018-.065V1006a.339.339,0,0,1,.113-.292.377.377,0,0,1,.218-.078h.294a.962.962,0,0,1,.236.024.486.486,0,0,1,.171.078.713.713,0,0,1,.151.16,2.689,2.689,0,0,1,.162.261l2.057,3.648c.129.227.252.447.368.657s.229.416.339.617l.327.6c.107.2.216.394.322.6h.005q-.005-.5-.005-1.031v-5.469a.114.114,0,0,1,.018-.064.138.138,0,0,1,.058-.051.359.359,0,0,1,.109-.029,1.474,1.474,0,0,1,.174-.009,1.446,1.446,0,0,1,.166.009.376.376,0,0,1,.112.029.161.161,0,0,1,.062.051.1.1,0,0,1,.02.064v7.135Z" transform="translate(3190.872 1525.046)" fill="#191919"/>
    <path id="Path_5261" data-name="Path 5261" d="M-3180.9,1009.83a3.734,3.734,0,0,0,3.73,3.73,3.733,3.733,0,0,0,3.73-3.73c0-.051,0-.1,0-.158h-3.55v.726h2.782l-.06.223a3.01,3.01,0,0,1-2.9,2.214,3.008,3.008,0,0,1-3-3.006,3.009,3.009,0,0,1,3-3,3,3,0,0,1,1.906.682l.516-.516a3.715,3.715,0,0,0-2.421-.893,3.735,3.735,0,0,0-3.73,3.73Z" transform="translate(3382.677 1524.653)" fill="#191919"/>
  </g>
</svg>
