<svg xmlns="http://www.w3.org/2000/svg" xmlns:xlink="http://www.w3.org/1999/xlink" width="36.01" height="36" viewBox="0 0 36.01 36">
  <defs>
    <radialGradient id="radial-gradient" cx="0.266" cy="1.077" r="0.991" gradientTransform="translate(-2.918 5.666) rotate(-90) scale(1 0.93)" gradientUnits="objectBoundingBox">
      <stop offset="0" stop-color="#fd5"/>
      <stop offset="0.1" stop-color="#fd5"/>
      <stop offset="0.5" stop-color="#ff543e"/>
      <stop offset="1" stop-color="#c837ab"/>
    </radialGradient>
  </defs>
  <g id="Instagram-Logo.wine" transform="translate(0)">
    <path id="Path_11083" data-name="Path 11083" d="M18.01,0C10.493,0,8.3.008,7.868.043A8.933,8.933,0,0,0,4.319.935,7.187,7.187,0,0,0,2.251,2.449,7.727,7.727,0,0,0,.165,6.828,32.493,32.493,0,0,0,0,12.142c0,1.433,0,3.32,0,5.85C0,25.5.009,27.7.045,28.126A9.043,9.043,0,0,0,.9,31.6,7.585,7.585,0,0,0,5.819,35.62a12.774,12.774,0,0,0,2.614.346c.446.019,4.991.033,9.538.033s9.095-.006,9.53-.028a12.3,12.3,0,0,0,2.709-.354,7.538,7.538,0,0,0,4.916-4.024,8.9,8.9,0,0,0,.849-3.411c.024-.31.035-5.256.035-10.194S36,8.112,35.974,7.8a8.8,8.8,0,0,0-.866-3.445,7.136,7.136,0,0,0-1.541-2.111A7.772,7.772,0,0,0,29.183.165,32.448,32.448,0,0,0,23.87,0Z" transform="translate(0)" fill="url(#radial-gradient)"/>
    <path id="Path_11084" data-name="Path 11084" d="M18.01,0C10.493,0,8.3.008,7.868.043A8.933,8.933,0,0,0,4.319.935,7.187,7.187,0,0,0,2.251,2.449,7.727,7.727,0,0,0,.165,6.828,32.493,32.493,0,0,0,0,12.142c0,1.433,0,3.32,0,5.85C0,25.5.009,27.7.045,28.126A9.043,9.043,0,0,0,.9,31.6,7.585,7.585,0,0,0,5.819,35.62a12.774,12.774,0,0,0,2.614.346c.446.019,4.991.033,9.538.033s9.095-.006,9.53-.028a12.3,12.3,0,0,0,2.709-.354,7.538,7.538,0,0,0,4.916-4.024,8.9,8.9,0,0,0,.849-3.411c.024-.31.035-5.256.035-10.194S36,8.112,35.974,7.8a8.8,8.8,0,0,0-.866-3.445,7.136,7.136,0,0,0-1.541-2.111A7.772,7.772,0,0,0,29.183.165,32.448,32.448,0,0,0,23.87,0Z" transform="translate(0)" fill="#777e90"/>
    <path id="Path_11085" data-name="Path 11085" d="M30.294,17c-3.61,0-4.063.016-5.481.08a9.755,9.755,0,0,0-3.226.618A6.8,6.8,0,0,0,17.7,21.585a9.71,9.71,0,0,0-.618,3.226c-.063,1.418-.08,1.871-.08,5.482s.016,4.062.08,5.48A9.769,9.769,0,0,0,17.7,39a6.8,6.8,0,0,0,3.887,3.889,9.763,9.763,0,0,0,3.227.618c1.418.065,1.871.08,5.481.08s4.062-.016,5.48-.08A9.769,9.769,0,0,0,39,42.889,6.811,6.811,0,0,0,42.889,39a9.853,9.853,0,0,0,.618-3.226c.064-1.418.08-1.87.08-5.48s-.017-4.063-.08-5.481a9.849,9.849,0,0,0-.618-3.226A6.8,6.8,0,0,0,39,17.7a9.786,9.786,0,0,0-3.229-.618C34.353,17.016,33.9,17,30.29,17ZM29.1,19.4h1.193c3.549,0,3.97.013,5.372.076a7.36,7.36,0,0,1,2.468.458,4.4,4.4,0,0,1,2.522,2.523,7.345,7.345,0,0,1,.458,2.468c.064,1.4.078,1.822.078,5.37s-.014,3.969-.078,5.37a7.352,7.352,0,0,1-.458,2.468,4.408,4.408,0,0,1-2.522,2.521,7.333,7.333,0,0,1-2.468.458c-1.4.064-1.822.078-5.372.078s-3.97-.014-5.372-.078a7.374,7.374,0,0,1-2.468-.458,4.4,4.4,0,0,1-2.524-2.522,7.345,7.345,0,0,1-.458-2.468c-.064-1.4-.076-1.822-.076-5.372s.013-3.969.076-5.37a7.36,7.36,0,0,1,.458-2.468,4.405,4.405,0,0,1,2.524-2.524,7.344,7.344,0,0,1,2.468-.458c1.226-.055,1.7-.072,4.179-.075ZM37.39,21.6a1.6,1.6,0,1,0,1.6,1.6,1.6,1.6,0,0,0-1.6-1.6Zm-7.1,1.864a6.826,6.826,0,1,0,6.826,6.827,6.827,6.827,0,0,0-6.826-6.827Zm0,2.4a4.431,4.431,0,1,1-4.431,4.431A4.431,4.431,0,0,1,30.294,25.862Z" transform="translate(-12.292 -12.292)" fill="#ebf1f4"/>
  </g>
</svg>
