<svg id="Group_2032" data-name="Group 2032" xmlns="http://www.w3.org/2000/svg" width="31.37" height="31.378" viewBox="0 0 31.37 31.378">
  <path id="Path_5031" data-name="Path 5031" d="M521.04,447.548V442.89c.164.013.241.145.331.25.737.852,1.469,1.709,2.207,2.562.451.523.911,1.039,1.362,1.562.591.684,1.176,1.373,1.767,2.056.571.661,1.148,1.317,1.72,1.977.618.714,1.242,1.423,1.847,2.149a3.552,3.552,0,0,1,.816,1.086h-1.165c-.068-.093-.168-.055-.254-.059-.976-.042-1.953-.069-2.925-.182a6.057,6.057,0,0,1-3.586-1.671,7.1,7.1,0,0,1-1.875-3.8A7.489,7.489,0,0,0,521.04,447.548Z" transform="translate(-521.037 -423.157)" fill="#777e90"/>
  <path id="Path_5032" data-name="Path 5032" d="M531.071,424.684a3.525,3.525,0,0,0-.816-1.086c-.6-.725-1.228-1.434-1.847-2.149-.573-.66-1.149-1.317-1.72-1.977-.591-.684-1.176-1.372-1.767-2.056-.451-.523-.911-1.039-1.362-1.562-.736-.853-1.469-1.71-2.207-2.562-.09-.1-.168-.238-.331-.25v-4.9c.152.007.227.13.31.226.324.375.637.76.962,1.137.78.905,1.559,1.812,2.349,2.709.137.155.252.351.481.4a25.91,25.91,0,0,0,.244,2.637,5.814,5.814,0,0,0,4.676,4.982,3.378,3.378,0,0,1,.908.219.439.439,0,0,0,.117.275q.4.472.814.941c.733.838,1.475,1.667,2.193,2.517.121.142.327.262.3.5Z" transform="translate(-521.02 -393.307)" fill="#777e90"/>
  <path id="Path_5034" data-name="Path 5034" d="M594.888,499.665c.023-.241-.185-.36-.3-.5-.718-.85-1.459-1.679-2.193-2.517q-.41-.467-.814-.94a.439.439,0,0,1-.117-.275c.953.031,1.9.159,2.857.137.457-.011.914.007,1.371.013-.041.223.14.319.257.453q1.4,1.614,2.8,3.233a.529.529,0,0,1,.192.4Z" transform="translate(-581.527 -468.288)" fill="#777e90"/>
  <path id="Path_5035" data-name="Path 5035" d="M642.126,500.214c-.24.089-.509-.048-.743.1H638.2a2.971,2.971,0,0,0-.571-.733c-.761-.878-1.529-1.75-2.272-2.644-.178-.214-.477-.368-.465-.712.142,0,.285-.01.427-.01,1.182,0,2.365.021,3.547-.031a5.38,5.38,0,0,0,1,1.282c.57.7,1.2,1.347,1.765,2.043C641.81,499.724,642.1,499.884,642.126,500.214Z" transform="translate(-618.831 -468.932)" fill="#777e90"/>
  <path id="Path_5036" data-name="Path 5036" d="M525.142,391.326c-.23-.051-.346-.247-.481-.4-.79-.9-1.569-1.8-2.349-2.709-.324-.376-.636-.761-.962-1.137-.083-.1-.158-.219-.31-.226V383.36c.164.011.238.145.33.25.228.257.447.522.671.783.474.553.945,1.108,1.423,1.658q.677.78,1.362,1.552c.08.092.162.188.306.168Q525.136,389.55,525.142,391.326Z" transform="translate(-521.037 -372.021)" fill="#777e90"/>
  <path id="Path_5037" data-name="Path 5037" d="M521.04,343.489c.127-.372.089-.771.182-1.148.021-.087.044-.175.066-.261.093,0,.134.068.189.131.6.692,1.2,1.379,1.794,2.07.45.522.881,1.062,1.349,1.567.207.224.343.53.66.646a2.945,2.945,0,0,1-.017.334,19.834,19.834,0,0,0-.131,2.606c-.144.021-.226-.078-.306-.168-.6-.682-1.208-1.364-1.805-2.052-.457-.527-.888-1.079-1.365-1.586-.195-.207-.3-.515-.615-.6C521.04,344.511,521.04,344,521.04,343.489Z" transform="translate(-521.037 -336.562)" fill="#777e90"/>
  <path id="Path_5038" data-name="Path 5038" d="M521.04,362.94c.313.09.422.4.615.6.477.509.907,1.06,1.365,1.586.6.688,1.2,1.369,1.8,2.052.08.09.162.189.306.168q0,1.44,0,2.881c-.144.021-.226-.076-.306-.168q-.683-.774-1.362-1.553c-.477-.55-.949-1.106-1.423-1.658-.224-.261-.443-.526-.671-.783-.091-.1-.166-.237-.33-.25Z" transform="translate(-521.037 -354.481)" fill="#777e90"/>
  <path id="Path_5040" data-name="Path 5040" d="M623.285,496.47c-.011.344.288.5.465.712.743.894,1.51,1.767,2.272,2.644a2.925,2.925,0,0,1,.571.733h-1.962a.528.528,0,0,0-.192-.4q-1.394-1.622-2.8-3.233c-.117-.134-.3-.23-.257-.453C622.017,496.471,622.652,496.471,623.285,496.47Z" transform="translate(-607.226 -469.181)" fill="#777e90"/>
  <path id="Path_5042" data-name="Path 5042" d="M664.144,312.267a8.225,8.225,0,0,0-.7-1.942,5.9,5.9,0,0,0-3.356-2.771c-.106-.035-.209-.075-.313-.113.135-.087.032-.151-.023-.216-.4-.468-.807-.933-1.21-1.4-.606-.705-1.222-1.4-1.813-2.121-.193-.235-.479-.41-.546-.74,1.45-.013,2.9-.027,4.35.017.051.333.336.5.529.725q1.075,1.265,2.162,2.52c.458.53.926,1.052,1.386,1.582.6.691,1.19,1.386,1.785,2.08.47.547.918,1.113,1.414,1.634.207.219.321.554.671.625q0,2.39.007,4.779c-.2.016-.283-.14-.386-.26-.567-.66-1.128-1.327-1.695-1.987q-.96-1.117-1.928-2.229C664.387,312.347,664.3,312.245,664.144,312.267Z" transform="translate(-637.121 -302.95)" fill="#777e90"/>
  <path id="Path_5043" data-name="Path 5043" d="M694.977,312.313c-.348-.07-.464-.406-.671-.625-.5-.522-.945-1.087-1.414-1.634-.6-.694-1.187-1.389-1.785-2.08-.458-.53-.928-1.052-1.386-1.582q-1.085-1.256-2.162-2.52c-.193-.228-.478-.392-.529-.725a7.962,7.962,0,0,1,5.475,1.6,6.808,6.808,0,0,1,2.307,4.061A16.93,16.93,0,0,1,694.977,312.313Z" transform="translate(-663.621 -303.118)" fill="#777e90"/>
  <path id="Path_5044" data-name="Path 5044" d="M712.649,369c.155-.021.242.079.33.181.643.743,1.288,1.483,1.928,2.229.567.66,1.128,1.327,1.695,1.987.1.12.19.275.386.259q0,2.574,0,5.147c-.2.014-.283-.142-.386-.262-.479-.551-.955-1.107-1.43-1.661-.457-.532-.9-1.076-1.373-1.589-.285-.309-.484-.709-.891-.9,0-.733,0-1.468-.011-2.2a15.534,15.534,0,0,0-.238-2.947A1.4,1.4,0,0,1,712.649,369Z" transform="translate(-685.625 -359.686)" fill="#777e90"/>
  <path id="Path_5045" data-name="Path 5045" d="M714.473,407.26c.407.189.6.589.891.9.475.515.917,1.059,1.373,1.589.477.554.951,1.11,1.43,1.661.1.12.189.276.386.262q0,1.931-.01,3.861c-.2.008-.279-.149-.382-.269-.457-.529-.909-1.063-1.365-1.593-.482-.561-.949-1.138-1.454-1.678-.279-.3-.471-.694-.873-.871Q714.472,409.193,714.473,407.26Z" transform="translate(-687.191 -392.551)" fill="#777e90"/>
  <path id="Path_5046" data-name="Path 5046" d="M591.281,307.122l-3.37,0c-.036-.2-.22-.285-.336-.422-.729-.857-1.472-1.7-2.194-2.565a7.328,7.328,0,0,1-.9-1.1h3.554c.066.344.351.527.56.767.76.879,1.527,1.751,2.269,2.645C591.026,306.651,591.306,306.8,591.281,307.122Z" transform="translate(-575.531 -303.027)" fill="#777e90"/>
  <path id="Path_5047" data-name="Path 5047" d="M612.919,307.131c.025-.324-.255-.471-.42-.668-.742-.894-1.509-1.767-2.269-2.645-.209-.241-.493-.423-.56-.767h3.37a.674.674,0,0,0,.214.36c.207.223.412.448.611.678.616.712,1.242,1.417,1.839,2.148.231.283.575.495.646.9Z" transform="translate(-597.169 -303.036)" fill="#777e90"/>
  <path id="Path_5048" data-name="Path 5048" d="M713.32,434.64c.4.178.594.573.873.871.5.54.972,1.117,1.454,1.678.455.532.908,1.065,1.365,1.593.1.12.186.278.382.269a10.183,10.183,0,0,1-.258,3.071.412.412,0,0,1-.3-.195q-.922-1.072-1.844-2.145c-.47-.546-.932-1.1-1.407-1.637-.131-.148-.238-.337-.458-.382C713.25,436.727,713.3,435.685,713.32,434.64Z" transform="translate(-686.04 -416.07)" fill="#777e90"/>
  <path id="Path_5049" data-name="Path 5049" d="M688.738,482.745a7.856,7.856,0,0,0,1.376-.888c.172-.158.343-.317.515-.477.4.458.8.915,1.2,1.376.618.715,1.239,1.424,1.844,2.15a3.355,3.355,0,0,1,.587.736c-.028.173-.186.234-.3.327a5.344,5.344,0,0,1-1.787,1.021.332.332,0,0,0-.089-.25c-.423-.479-.842-.963-1.264-1.444-.6-.68-1.2-1.351-1.781-2.045C688.922,483.107,688.714,482.988,688.738,482.745Z" transform="translate(-665.086 -456.219)" fill="#777e90"/>
  <path id="Path_5050" data-name="Path 5050" d="M636.89,307.122c-.07-.4-.415-.613-.646-.9-.6-.729-1.221-1.434-1.839-2.148-.2-.23-.4-.457-.61-.678a.672.672,0,0,1-.214-.36h3.187c.066.331.352.5.546.74.591.718,1.207,1.416,1.813,2.121.4.468.807.934,1.21,1.4.055.065.159.128.022.216A17.08,17.08,0,0,0,636.89,307.122Z" transform="translate(-617.708 -303.027)" fill="#777e90"/>
  <path id="Path_5051" data-name="Path 5051" d="M527.518,329.783a9.74,9.74,0,0,0-.736,2.476c-.316-.116-.451-.422-.66-.646-.468-.5-.9-1.045-1.349-1.567-.6-.691-1.2-1.378-1.794-2.07-.055-.065-.1-.13-.189-.131a5.515,5.515,0,0,1,.9-2.335c.4.14.574.529.835.812.65.707,1.262,1.447,1.89,2.174Q526.965,329.142,527.518,329.783Z" transform="translate(-522.541 -322.329)" fill="#777e90"/>
  <path id="Path_5052" data-name="Path 5052" d="M542.41,311.569a8.8,8.8,0,0,0-1.637,1.018,1.882,1.882,0,0,0-.24.267c-.1-.14-.188-.289-.3-.419-.911-1.059-1.818-2.122-2.747-3.166-.2-.224-.341-.51-.628-.653a5.085,5.085,0,0,1,2.057-1.266,1.271,1.271,0,0,0,.348.487c.852.991,1.726,1.961,2.569,2.96C542.039,311.04,542.324,311.233,542.41,311.569Z" transform="translate(-534.626 -306.73)" fill="#777e90"/>
  <path id="Path_5053" data-name="Path 5053" d="M568.4,303.006a7.4,7.4,0,0,0,.9,1.1c.722.863,1.465,1.708,2.194,2.565.116.137.3.221.336.422-.9.017-1.8.11-2.7.2a.327.327,0,0,0-.087-.25c-.853-.971-1.713-1.939-2.55-2.926a3.85,3.85,0,0,1-.737-.948A14.265,14.265,0,0,1,568.4,303.006Z" transform="translate(-559.451 -302.993)" fill="#777e90"/>
  <path id="Path_5054" data-name="Path 5054" d="M705.774,475.74a3.369,3.369,0,0,0-.587-.736c-.6-.726-1.227-1.437-1.844-2.15-.4-.461-.8-.918-1.2-1.376a6.428,6.428,0,0,0,1-1.627c.359.07.482.41.691.637.625.677,1.21,1.389,1.811,2.088l1.362,1.592a5.436,5.436,0,0,1-1.1,1.512A.443.443,0,0,1,705.774,475.74Z" transform="translate(-676.6 -446.315)" fill="#777e90"/>
  <path id="Path_5055" data-name="Path 5055" d="M676.8,491.06c-.023.241.183.362.3.506.58.694,1.186,1.365,1.781,2.045.422.481.841.966,1.264,1.444a.336.336,0,0,1,.089.25,4.878,4.878,0,0,1-2.024.412c0-.267-.241-.36-.381-.523-.747-.878-1.512-1.743-2.251-2.628a3.95,3.95,0,0,1-.745-.955A16.132,16.132,0,0,0,676.8,491.06Z" transform="translate(-653.15 -464.534)" fill="#777e90"/>
  <path id="Path_5056" data-name="Path 5056" d="M553.478,304.2a3.821,3.821,0,0,0,.737.948c.836.987,1.7,1.953,2.55,2.926a.325.325,0,0,1,.087.25,15.273,15.273,0,0,0-1.9.54c-.086-.334-.371-.529-.575-.771-.842-1-1.717-1.97-2.569-2.96a1.291,1.291,0,0,1-.348-.487A6.738,6.738,0,0,1,553.478,304.2Z" transform="translate(-547.168 -304.024)" fill="#777e90"/>
  <path id="Path_5057" data-name="Path 5057" d="M713.134,462.957q-.681-.8-1.362-1.592c-.6-.7-1.186-1.412-1.811-2.088-.209-.227-.333-.567-.691-.637a5.917,5.917,0,0,0,.484-1.7.5.5,0,0,1,.059-.135c.22.047.327.234.458.382.475.54.939,1.091,1.407,1.637l1.844,2.145a.415.415,0,0,0,.3.195A5.719,5.719,0,0,1,713.134,462.957Z" transform="translate(-682.724 -435.105)" fill="#777e90"/>
  <path id="Path_5058" data-name="Path 5058" d="M530.239,316.33c.286.142.429.429.628.653.928,1.044,1.836,2.107,2.747,3.166.112.13.2.279.3.419a9.278,9.278,0,0,0-.931,1.331l-1.107-1.285c-.628-.728-1.24-1.468-1.89-2.174-.261-.283-.43-.674-.835-.812A5.348,5.348,0,0,1,530.239,316.33Z" transform="translate(-528.004 -314.443)" fill="#777e90"/>
  <path id="Path_5059" data-name="Path 5059" d="M664.747,494.97a3.915,3.915,0,0,0,.745.955c.739.885,1.5,1.75,2.25,2.628.14.164.382.257.381.523-.588.075-1.179.079-1.77.1-.03-.33-.316-.491-.5-.709-.57-.7-1.2-1.347-1.766-2.043a5.357,5.357,0,0,1-1-1.282Z" transform="translate(-643.057 -467.893)" fill="#777e90"/>
  <path id="Path_5060" data-name="Path 5060" d="M623.147,346.9l2.635-.006c.069.441.458.656.708.963.561.694,1.172,1.347,1.756,2.022.973,1.128,1.94,2.263,2.91,3.394.76.884,1.517,1.771,2.289,2.647a1.247,1.247,0,0,0,.547.468c.018,1.39-.041,2.779-.126,4.167-.161-.017-.237-.149-.329-.254-.2-.227-.388-.465-.585-.7-.626-.729-1.24-1.471-1.891-2.176-.214-.231-.347-.556-.677-.674,0-.123,0-.244-.006-.367a5.908,5.908,0,0,0-1.376-3.8,6.154,6.154,0,0,0-2.947-1.937c.113-.055.073-.123.017-.195-.138-.175-.265-.36-.412-.527-.733-.842-1.478-1.672-2.2-2.524C623.338,347.254,623.134,347.135,623.147,346.9Z" transform="translate(-608.745 -340.694)" fill="#777e90"/>
  <path id="Path_5061" data-name="Path 5061" d="M564.963,395.677c-.014-.919-.022-1.839.052-2.757.192.03.281.193.392.319.182.2.346.423.523.63.626.73,1.241,1.472,1.892,2.179.219.238.358.581.721.671a6.022,6.022,0,0,0,.361,1.444,6.259,6.259,0,0,0,2.291,2.771,6.059,6.059,0,0,0,2.394.884.331.331,0,0,0,.121.266c.762.88,1.524,1.758,2.276,2.645a1.7,1.7,0,0,1,.482.687l-3.063-.011a.336.336,0,0,0-.127-.265c-.3-.334-.589-.671-.881-1.01-.609-.707-1.216-1.417-1.826-2.124-.557-.646-1.118-1.287-1.675-1.933q-.916-1.06-1.828-2.122c-.47-.546-.921-1.11-1.416-1.632C565.439,396.094,565.335,395.735,564.963,395.677Z" transform="translate(-558.758 -380.233)" fill="#777e90"/>
  <path id="Path_5062" data-name="Path 5062" d="M564.958,412.47c.372.058.478.417.691.643.495.522.946,1.086,1.416,1.632q.914,1.062,1.827,2.122c.557.646,1.118,1.288,1.675,1.933.611.707,1.217,1.417,1.826,2.124q.438.508.881,1.01a.343.343,0,0,1,.127.265c-.94.037-1.88-.02-2.819-.059a.61.61,0,0,0-.217-.42q-.491-.541-.967-1.094-1.113-1.288-2.221-2.582c-.468-.546-.918-1.11-1.411-1.633-.244-.258-.386-.632-.77-.747a14.564,14.564,0,0,1-.045-1.7C564.943,413.464,564.954,412.968,564.958,412.47Z" transform="translate(-558.754 -397.026)" fill="#777e90"/>
  <path id="Path_5063" data-name="Path 5063" d="M650.05,356.263a1.245,1.245,0,0,1-.547-.468c-.771-.876-1.529-1.761-2.289-2.647-.972-1.131-1.938-2.266-2.911-3.394-.582-.675-1.194-1.328-1.756-2.022-.248-.307-.637-.522-.708-.963a25.49,25.49,0,0,1,4.044.127.7.7,0,0,0,.079.158c.409.475.828.943,1.228,1.426.082.1.261.18.161.369A1.4,1.4,0,0,0,645.632,351a1.245,1.245,0,0,0,1.324.437,1.407,1.407,0,0,0,1.1-1.538c.131-.021.206.069.279.151.351.4.7.808,1.049,1.206.142.161.25.374.5.406a8.491,8.491,0,0,1,.135,1.424C650.075,354.144,650.088,355.2,650.05,356.263Z" transform="translate(-624.803 -340.573)" fill="#777e90"/>
  <path id="Path_5064" data-name="Path 5064" d="M568.918,373.835c-.361-.09-.5-.434-.721-.671-.651-.706-1.266-1.448-1.892-2.179-.178-.207-.341-.427-.523-.63-.113-.126-.2-.288-.392-.319a13.2,13.2,0,0,1,.475-3.757c.329.478.74.885,1.111,1.327.743.883,1.5,1.751,2.258,2.626.065.076.125.164.241.171A6.206,6.206,0,0,0,568.918,373.835Z" transform="translate(-559.133 -357.35)" fill="#777e90"/>
  <path id="Path_5065" data-name="Path 5065" d="M565.279,435.1c.383.116.526.489.77.747.494.523.943,1.087,1.412,1.633q1.11,1.292,2.221,2.582.478.552.967,1.094a.6.6,0,0,1,.217.42,10.786,10.786,0,0,1-3.128-.475,3.126,3.126,0,0,1-2.08-2.335A14.312,14.312,0,0,1,565.279,435.1Z" transform="translate(-559.038 -416.465)" fill="#777e90"/>
  <path id="Path_5066" data-name="Path 5066" d="M602.189,346.88c-.014.238.19.357.313.5.722.852,1.467,1.682,2.2,2.524.147.168.274.351.412.527.056.072.094.138-.017.195a6.62,6.62,0,0,0-3.4.042.3.3,0,0,0-.071-.224c-.252-.289-.5-.584-.752-.873-.606-.692-1.222-1.373-1.815-2.077-.128-.152-.336-.282-.313-.533A34.132,34.132,0,0,1,602.189,346.88Z" transform="translate(-587.787 -340.678)" fill="#777e90"/>
  <path id="Path_5067" data-name="Path 5067" d="M668.709,432.414a3.582,3.582,0,0,1-.928,1.992c-.082.087-.1.224-.228.272-.162-.193-.32-.391-.485-.581-.857-.983-1.727-1.954-2.566-2.953a2.468,2.468,0,0,1-.581-.733,7.076,7.076,0,0,0,1.145-1.942c.216.028.317.206.443.348.181.206.348.422.526.629.619.722,1.225,1.457,1.87,2.156C668.159,431.882,668.335,432.251,668.709,432.414Z" transform="translate(-643.769 -410.77)" fill="#777e90"/>
  <path id="Path_5068" data-name="Path 5068" d="M574.01,350.412a2.9,2.9,0,0,1,1.722-.972.47.47,0,0,0,.052.14c.956,1.1,1.918,2.2,2.867,3.312a1.887,1.887,0,0,1,.451.6,7.881,7.881,0,0,0-1.364,1.16c-.2-.045-.3-.212-.415-.345-.908-1.039-1.818-2.08-2.706-3.138A3.129,3.129,0,0,1,574.01,350.412Z" transform="translate(-566.538 -342.884)" fill="#777e90"/>
  <path id="Path_5069" data-name="Path 5069" d="M655.037,442.25c.106.313.382.5.581.733.839,1,1.709,1.97,2.566,2.953.166.19.324.386.485.581a3.617,3.617,0,0,1-1.772.934c-.241-.3-.475-.6-.726-.891-.736-.847-1.486-1.681-2.213-2.535-.145-.171-.351-.319-.378-.574A7.982,7.982,0,0,0,655.037,442.25Z" transform="translate(-634.887 -422.607)" fill="#777e90"/>
  <path id="Path_5070" data-name="Path 5070" d="M642.757,450.76c.027.255.233.4.378.574.726.855,1.476,1.689,2.212,2.535.251.289.485.594.726.891a8.159,8.159,0,0,1-2.212.313.447.447,0,0,0-.126-.3c-.712-.818-1.44-1.623-2.132-2.456-.227-.272-.564-.478-.623-.874A7.558,7.558,0,0,0,642.757,450.76Z" transform="translate(-624.064 -429.917)" fill="#777e90"/>
  <path id="Path_5071" data-name="Path 5071" d="M569.509,356.33a3.1,3.1,0,0,0,.609.757c.888,1.058,1.8,2.1,2.706,3.138.117.134.219.3.415.346a8.124,8.124,0,0,0-.859,1.287c-.116-.007-.176-.1-.241-.171-.754-.873-1.515-1.743-2.258-2.626-.371-.441-.783-.849-1.111-1.327A2.986,2.986,0,0,1,569.509,356.33Z" transform="translate(-562.037 -348.803)" fill="#777e90"/>
  <path id="Path_5072" data-name="Path 5072" d="M628.272,455.58c.059.4.4.6.623.874.694.833,1.42,1.639,2.132,2.456a.449.449,0,0,1,.125.3,19.808,19.808,0,0,1-2.086.025,1.7,1.7,0,0,0-.482-.687c-.753-.887-1.516-1.765-2.276-2.645a.334.334,0,0,1-.121-.267A6.756,6.756,0,0,0,628.272,455.58Z" transform="translate(-611.357 -434.057)" fill="#777e90"/>
  <path id="Path_5073" data-name="Path 5073" d="M589.6,351.823a1.925,1.925,0,0,0-.451-.6c-.949-1.11-1.912-2.208-2.867-3.312a.419.419,0,0,1-.052-.14A6.892,6.892,0,0,1,588,347.5c-.023.251.186.381.313.533.591.7,1.208,1.386,1.815,2.077.252.289.5.584.752.873a.3.3,0,0,1,.071.224A12.373,12.373,0,0,0,589.6,351.823Z" transform="translate(-577.035 -341.218)" fill="#777e90"/>
  <path id="Path_5074" data-name="Path 5074" d="M675.675,422.4c-.374-.165-.55-.532-.807-.811-.645-.7-1.251-1.434-1.87-2.156-.178-.207-.345-.423-.526-.629-.125-.142-.226-.32-.443-.348a8.721,8.721,0,0,0,.344-1.644c.33.117.464.443.677.674.651.705,1.265,1.447,1.891,2.176.2.23.385.468.585.7.092.1.166.237.329.254A9.279,9.279,0,0,1,675.675,422.4Z" transform="translate(-650.736 -400.754)" fill="#777e90"/>
  <path id="Path_5075" data-name="Path 5075" d="M672,349.743c.1-.188-.079-.271-.161-.369-.4-.482-.819-.95-1.228-1.426a.683.683,0,0,1-.079-.158,3.836,3.836,0,0,1,3.792,3.412,6.943,6.943,0,0,1,.21,1.352c-.248-.034-.355-.245-.5-.406-.354-.4-.7-.805-1.049-1.206-.072-.082-.147-.173-.279-.151A1.586,1.586,0,0,0,672,349.743Z" transform="translate(-649.447 -341.467)" fill="#777e90"/>
  <path id="Path_5078" data-name="Path 5078" d="M609.15,390.767a3.054,3.054,0,0,1,1.579-1.417.466.466,0,0,1,.188.151q1.1,1.28,2.2,2.557c.468.546.921,1.106,1.409,1.633a9.1,9.1,0,0,0,1.146,1.254,3.068,3.068,0,0,1-1.577,1.419,3.5,3.5,0,0,1-.666-.7c-.625-.691-1.223-1.407-1.829-2.115-.455-.53-.888-1.08-1.367-1.589A10.675,10.675,0,0,0,609.15,390.767Z" transform="translate(-596.723 -377.167)" fill="#777e90"/>
  <path id="Path_5079" data-name="Path 5079" d="M625.282,392.807a9.229,9.229,0,0,1-1.146-1.254c-.488-.527-.94-1.087-1.409-1.633l-2.2-2.557a.456.456,0,0,0-.187-.151,3.729,3.729,0,0,1,1.988-.336.46.46,0,0,0,.168.348c.448.526.911,1.039,1.363,1.562s.9,1.076,1.375,1.589c.176.19.268.492.589.526A3.469,3.469,0,0,1,625.282,392.807Z" transform="translate(-606.335 -375.029)" fill="#777e90"/>
  <path id="Path_5080" data-name="Path 5080" d="M605.86,399.4a10.522,10.522,0,0,1,1.083,1.187c.478.509.911,1.059,1.366,1.589.606.708,1.2,1.423,1.829,2.115a3.5,3.5,0,0,0,.666.7,3.7,3.7,0,0,1-1.926.341.993.993,0,0,0-.114-.244c-.392-.462-.791-.919-1.186-1.379-.475-.551-.932-1.118-1.428-1.65-.264-.282-.434-.668-.829-.818A3.422,3.422,0,0,1,605.86,399.4Z" transform="translate(-593.433 -385.799)" fill="#777e90"/>
  <path id="Path_5081" data-name="Path 5081" d="M605.112,412.48c.395.151.565.536.829.818.5.532.953,1.1,1.428,1.65.4.46.8.917,1.186,1.379a1,1,0,0,1,.114.244,3.6,3.6,0,0,1-3.49-2.943A3,3,0,0,1,605.112,412.48Z" transform="translate(-593.226 -397.035)" fill="#777e90"/>
  <path id="Path_5082" data-name="Path 5082" d="M637.925,391c-.32-.032-.413-.336-.589-.526-.475-.513-.917-1.06-1.375-1.589s-.915-1.035-1.364-1.562a.464.464,0,0,1-.168-.348A3.669,3.669,0,0,1,637.925,391Z" transform="translate(-618.435 -375.122)" fill="#777e90"/>
</svg>
