<svg xmlns="http://www.w3.org/2000/svg" width="22.407" height="22.393" viewBox="0 0 22.407 22.393">
  <g id="Group_629" data-name="Group 629" transform="translate(0 0)">
    <path id="Path_1987" data-name="Path 1987" d="M1460.932,137.561c2.011,0,4.023,0,6.034,0a5.1,5.1,0,0,1,5.019,3.864,5.319,5.319,0,0,1,.156,1.323q0,3.983,0,7.966a5.091,5.091,0,0,1-4.164,5.086,5.343,5.343,0,0,1-1.068.084c-1.8,0-3.594,0-5.39,0a.824.824,0,0,0-.486.144q-2.778,1.863-5.563,3.715a1.021,1.021,0,0,1-1.615-.52,1.428,1.428,0,0,1-.036-.4c0-.946,0-1.893,0-2.839a.2.2,0,0,0-.181-.24,5.017,5.017,0,0,1-3.844-4.225,4.193,4.193,0,0,1-.055-.736c0-2.695-.01-5.391,0-8.086a5.084,5.084,0,0,1,4.067-5.021,5.368,5.368,0,0,1,1.161-.11Zm0,8.149h2.432c1.232,0,2.464,0,3.7,0a1.016,1.016,0,0,0,.336-1.972,1.474,1.474,0,0,0-.517-.068q-5.734,0-11.469,0c-.191,0-.381-.005-.573,0a1.027,1.027,0,0,0-.957.665,1.016,1.016,0,0,0,.992,1.372C1456.891,145.712,1458.91,145.709,1460.929,145.709Zm-.013,4.067h3.793c.12,0,.239,0,.357,0a1.015,1.015,0,1,0-.154-2.024q-3.972,0-7.943,0c-.064,0-.128,0-.191.005a1.013,1.013,0,0,0,.131,2.02C1458.244,149.782,1459.581,149.776,1460.916,149.776Z" transform="translate(-1449.737 -137.559)" fill="#777e90"/>
  </g>
</svg>
