<svg xmlns="http://www.w3.org/2000/svg" width="33.394" height="31.378" viewBox="0 0 33.394 31.378">
  <path id="Path_5083" data-name="Path 5083" d="M437.108,574.942v.457a2.487,2.487,0,0,1-1.437,1.192,12.33,12.33,0,0,1-2.707.693.459.459,0,0,0-.449.415c-.063.329-.155.655-.237.982a.91.91,0,0,1-1.115.785,21.244,21.244,0,0,0-2.166-.251,5.048,5.048,0,0,0-2.32.4,21.237,21.237,0,0,0-2.243,1.448,6.944,6.944,0,0,1-6.765.7,10.244,10.244,0,0,1-2.353-1.451,5.349,5.349,0,0,0-3.948-1.08c-.541.056-1.072.172-1.609.249a.943.943,0,0,1-1.218-.816c-.074-.306-.159-.61-.217-.919a.516.516,0,0,0-.512-.471,11.514,11.514,0,0,1-2.186-.509,3.582,3.582,0,0,1-1.6-.894.858.858,0,0,1,.478-1.518,7.985,7.985,0,0,0,1.465-.435,9.867,9.867,0,0,0,5.011-5.165c.391-.825.184-1.321-.637-1.717-.431-.209-.894-.335-1.341-.5a4.468,4.468,0,0,1-1.322-.689,1.228,1.228,0,0,1,.237-2.2,1.77,1.77,0,0,1,1.63-.044,2.884,2.884,0,0,0,1.546.31c.176-.021.34-.047.316-.306-.045-.464-.064-.932-.092-1.4a18.141,18.141,0,0,1,.077-4.358,7.9,7.9,0,0,1,4.334-5.748,10.105,10.105,0,0,1,8.16-.534,8.255,8.255,0,0,1,5.3,5.243,10.267,10.267,0,0,1,.389,3.9c-.033.956-.092,1.91-.157,2.864-.015.232.08.313.283.336a1.7,1.7,0,0,0,.487-.016,4.251,4.251,0,0,0,.957-.316,2.018,2.018,0,0,1,1.846.11,1.2,1.2,0,0,1,.263,2.07,4.033,4.033,0,0,1-1.419.778,11.977,11.977,0,0,0-1.373.512,1.12,1.12,0,0,0-.625,1.7,10.861,10.861,0,0,0,1.5,2.432,8.245,8.245,0,0,0,4.846,3.137A1.158,1.158,0,0,1,437.108,574.942Z" transform="translate(-403.714 -550.956)" fill="#777e90"/>
</svg>
