<svg id="close" xmlns="http://www.w3.org/2000/svg" width="31.805" height="25.981" viewBox="0 0 31.805 25.981">
  <path id="Path_5088" data-name="Path 5088" d="M846.684,628.644a11.953,11.953,0,0,1-2.875,3.046.654.654,0,0,0-.288.621,18.609,18.609,0,0,1-1.889,8.63,18.255,18.255,0,0,1-6.924,7.808,17.83,17.83,0,0,1-7.121,2.5,19.5,19.5,0,0,1-5.383-.012,18.194,18.194,0,0,1-7.229-2.66.523.523,0,0,1-.064-.074,13.36,13.36,0,0,0,9.6-2.718,7.891,7.891,0,0,1-1.3-.167,6.576,6.576,0,0,1-4.69-4.062c-.135-.326-.111-.342.247-.292a6.663,6.663,0,0,0,2.326-.1.9.9,0,0,0,.153-.067,6.519,6.519,0,0,1-5.1-6.476,6.588,6.588,0,0,0,2.887.767,6.6,6.6,0,0,1-2.71-4.01,6.481,6.481,0,0,1,.71-4.687c.121.027.162.119.221.188a18.557,18.557,0,0,0,10.3,6.228,20.466,20.466,0,0,0,2.778.387c.232.02.217-.063.19-.245a6.468,6.468,0,0,1,2.158-6.189,6.534,6.534,0,0,1,8.889.293.384.384,0,0,0,.409.117,13.393,13.393,0,0,0,3.6-1.357c.08-.045.164-.082.308-.154a6.735,6.735,0,0,1-2.691,3.524,4.292,4.292,0,0,0,1.16-.168c.384-.093.765-.194,1.141-.313s.764-.268,1.145-.4C846.655,628.615,846.669,628.63,846.684,628.644Z" transform="translate(-814.91 -625.454)" fill="#777e90"/>
  <path id="Path_5089" data-name="Path 5089" d="M1220.36,665.511l.072-.011-.031.056A.386.386,0,0,1,1220.36,665.511Z" transform="translate(-1188.627 -662.366)" fill="#777e90"/>
</svg>
