<svg id="Group_1930" data-name="Group 1930" xmlns="http://www.w3.org/2000/svg" width="29.284" height="17.436" viewBox="0 0 29.284 17.436">
  <path id="Path_4995" data-name="Path 4995" d="M1481.6,166.053a20.99,20.99,0,0,1,3.176-3.606,17.47,17.47,0,0,1,8.494-4.477,15.32,15.32,0,0,1,10.189,1.493,21.2,21.2,0,0,1,7.166,6.215,1.135,1.135,0,0,1-.006,1.451,21.212,21.212,0,0,1-7.276,6.26,15.572,15.572,0,0,1-5.6,1.646,16.024,16.024,0,0,1-11.353-3.356,22.578,22.578,0,0,1-4.5-4.522,5.14,5.14,0,0,1-.29-.477Zm14.713,6.492a6.149,6.149,0,1,0-6.227-5.967A6.139,6.139,0,0,0,1496.313,172.545Z" transform="translate(-1481.6 -157.671)" fill="#777e90"/>
  <path id="Path_4997" data-name="Path 4997" d="M1563.707,197.045a3.314,3.314,0,1,1-3.251-3.326A3.307,3.307,0,0,1,1563.707,197.045Z" transform="translate(-1545.752 -188.31)" fill="#777e90"/>
</svg>
