<svg xmlns="http://www.w3.org/2000/svg" width="35.706" height="35.697" viewBox="0 0 35.706 35.697">
  <g id="Group_16331" data-name="Group 16331" transform="translate(0)">
    <path id="Path_11096" data-name="Path 11096" d="M392.5,558.223v-9.071a3.119,3.119,0,0,1,1.014-1.4,3.69,3.69,0,0,1,1.783-.332c.629.017,1.241,0,1.87-.018h.4c1.223,0,2.464.018,3.688.018.979,0,1.975-.018,2.954-.018a.337.337,0,0,0,.227,0c.769.035,1.521.035,2.29,0,.1,0,.21.018.315.018h14.524c.087,0,.192-.018.28-.018a6.163,6.163,0,0,0,1.136,0c.157.052.3-.07.437-.035a11.038,11.038,0,0,0,2.01.052,3.719,3.719,0,0,1,1.748.332,2.615,2.615,0,0,1,1.031,2.307c-.017,2.464-.017,4.946,0,7.41a2.4,2.4,0,0,1-1.049,2.115,2.465,2.465,0,0,1-1.049.332.683.683,0,0,0-.419.035,6.174,6.174,0,0,0-1.136,0c-.157,0-.3-.018-.454-.018h-9.3c-1.486,0-2.971,0-4.457.018-.961-.052-1.923-.035-2.884,0h-.28v0c-.752,0-1.5.017-2.255.017h-5.138a1.847,1.847,0,0,0-.874,0h-1.206c-.07-.035-.14-.07-.21-.017-.472,0-.961.017-1.433.017h-.332a1.078,1.078,0,0,0-.664,0h-.507l-.1-.052c-.14-.018-.28-.052-.419-.07a.37.37,0,0,0-.245-.07.454.454,0,0,0-.28-.157,3.019,3.019,0,0,1-.786-.909C392.657,558.555,392.675,558.346,392.5,558.223Zm6.117-3.967c-.052-.157-.087-.245-.122-.35-.3-.944-.612-1.9-.909-2.849-.07-.21-.157-.3-.384-.28-.367.018-.717.018-1.084,0-.227-.017-.245.07-.175.262.612,1.765,1.241,3.548,1.853,5.331a.292.292,0,0,0,.35.227q.577-.026,1.154,0a.328.328,0,0,0,.384-.3c.227-.734.472-1.486.734-2.22.07-.175.07-.385.227-.542.315.944.629,1.87.926,2.8.052.175.122.262.332.262.4-.017.821-.017,1.223,0,.157,0,.262-.035.315-.192.612-1.8,1.241-3.6,1.87-5.383.07-.227-.017-.227-.192-.227-.384,0-.769.017-1.154,0-.227-.018-.315.052-.385.28-.28.926-.594,1.853-.891,2.779-.035.1-.035.245-.175.332-.332-1.066-.682-2.1-1-3.128a.3.3,0,0,0-.332-.262c-.367.017-.752.017-1.119,0-.28-.018-.367.087-.454.35C399.3,552.159,398.967,553.172,398.617,554.256Zm21.392-.7a.392.392,0,0,1,.14.262c.28.839.559,1.66.839,2.5.07.192.157.28.367.262.4-.018.821-.018,1.223,0a.248.248,0,0,0,.28-.192c.612-1.8,1.241-3.6,1.87-5.383.07-.175.035-.245-.175-.245-.4.017-.821.017-1.223,0a.279.279,0,0,0-.315.227c-.14.472-.3.944-.454,1.433-.192.577-.385,1.171-.594,1.835-.35-1.1-.682-2.115-1-3.128-.087-.262-.175-.385-.472-.367a4.864,4.864,0,0,1-.874,0,.355.355,0,0,0-.437.315q-.419,1.389-.891,2.779c-.035.1-.017.227-.157.3-.332-1.031-.664-2.062-.979-3.094-.07-.21-.14-.3-.385-.3-.367.017-.751.017-1.119,0-.227,0-.315.035-.21.28l1.835,5.3a.309.309,0,0,0,.35.245c.367-.018.717-.018,1.084,0,.227.017.315-.07.384-.28C419.38,555.409,419.695,554.5,420.009,553.557Zm-11.622.629c-.14-.1-.14-.245-.175-.367-.3-.909-.594-1.835-.874-2.744-.07-.21-.157-.315-.384-.3a10.469,10.469,0,0,1-1.049,0c-.227-.017-.3.035-.21.28l1.835,5.3a.291.291,0,0,0,.315.245c.4-.017.786-.017,1.188,0a.259.259,0,0,0,.3-.21c.175-.524.367-1.049.559-1.573.14-.4.3-.8.472-1.311.07.192.1.3.14.4.245.8.507,1.608.751,2.429.052.192.122.262.332.262.4-.017.821-.017,1.223,0a.282.282,0,0,0,.315-.21c.612-1.8,1.241-3.6,1.87-5.4.052-.175.035-.227-.157-.227q-.629.026-1.258,0c-.192,0-.262.07-.315.245-.07.262-.157.524-.245.8-.262.786-.507,1.59-.786,2.447-.35-1.119-.7-2.15-1.014-3.181-.07-.227-.157-.332-.4-.315a9.817,9.817,0,0,1-1.014,0c-.262-.017-.35.087-.419.332C409.051,552.141,408.719,553.155,408.387,554.186Z" transform="translate(-392.5 -535.844)" fill="#059e4b"/>
    <path id="Path_11098" data-name="Path 11098" d="M433.155,617.4a7.612,7.612,0,0,1-.769,1.957,17.659,17.659,0,0,1-13.615,9.822,6.317,6.317,0,0,0-1.153.157h-2.587c-.594-.087-1.206-.157-1.8-.28a17.586,17.586,0,0,1-13.388-10.8.526.526,0,0,1-.087-.367c.192,0,.332-.035.28-.28.14.018.28.052.419.07l.1.052h.507a.454.454,0,0,0,.664,0h.332a.235.235,0,0,0,.262.122,3.8,3.8,0,0,0,1.258-.1c.035-.017.07-.017.1-.035h1.206a.963.963,0,0,0,.874,0h5.138a.534.534,0,0,1-.262.472.715.715,0,0,0-.315.437c-.035.227-.21.332-.367.472a1.522,1.522,0,0,0-.664,1.328,1.092,1.092,0,0,1-.122.7.4.4,0,0,0,.157.542,1.56,1.56,0,0,1,.472.542,1.073,1.073,0,0,0,.3.332c.542.489,1.171.28,1.765.175.315-.052.629-.245.874.122.052.087.175.035.262.052.3.035.472.21.35.454-.192.419-.017.664.245.944a1.436,1.436,0,0,1,.192,1.4c-.1.262-.245.542-.052.821a2.765,2.765,0,0,1,.384,1.1.733.733,0,0,0,.14.385,2.318,2.318,0,0,1,.4.8c.035.122.07.192.192.192.332.017.647.052.979.07a.749.749,0,0,0,.7-.437c.157-.315.419-.559.437-.926,0-.07.07-.122.14-.14a.384.384,0,0,0,.21-.559c-.1-.28,0-.384.21-.542.717-.542.752-.629.507-1.538a.993.993,0,0,1,.315-1.066c.192-.175.385-.332.577-.489a3.505,3.505,0,0,0,.8-1.084.315.315,0,0,0,0-.367c-.087-.1-.192-.017-.28.018-.14.035-.3.052-.437.087-.245.052-.384-.017-.384-.3l.052-.052a.464.464,0,0,0,.332-.07c.419-.192.8-.454,1.206-.664a2.005,2.005,0,0,0,.629-.577c.4-.454-.035-.507-.262-.664-.017,0-.017-.017-.017-.035-.052-.262-.157-.122-.28-.035-.227.192-.437.192-.594-.087a1.781,1.781,0,0,0-.315-.4c-.087-.1-.157-.245-.035-.332.157-.1.262.035.315.157a.627.627,0,0,0,.769.367c.035,0,.087-.035.1-.018a1.435,1.435,0,0,0,1.136.122.874.874,0,0,1,.821.4c.175.245.3.35.612.087a2.688,2.688,0,0,0,.454,1.748c.052.14.087.385.262.367a.6.6,0,0,0,.4-.437.773.773,0,0,0,.035-.35.451.451,0,0,1,.227-.437,3.642,3.642,0,0,0,.891-.752c.1-.14.524-.262.594-.157a1.427,1.427,0,0,1,.454.839c0,.21.07.245.245.14.087-.052.21-.122.227.052a2.875,2.875,0,0,1,.175.839c-.052.472.332.752.454,1.136.017.087.157.14.245.192.1.052.192.035.175-.1-.035-.21-.035-.454-.262-.577-.175-.087-.21-.245-.3-.4a.518.518,0,0,1,.052-.647c.052-.07.332.087.472.227.122.1.28.28.4.262a.6.6,0,0,0,.472-.909.771.771,0,0,0-.262-.315c-.122-.1-.21-.227-.122-.4.087-.157.21-.332.4-.28a2.338,2.338,0,0,0,.979-.14,1.809,1.809,0,0,0,1.049-1.293c.052-.35-.245-.559-.245-.874a8.215,8.215,0,0,1,1.136,0c0,.07-.035.245.017.192.122-.1.35-.052.419-.245A1.229,1.229,0,0,0,433.155,617.4Z" transform="translate(-398.48 -593.64)" fill="#777e90"/>
    <path id="Path_11100" data-name="Path 11100" d="M455.6,482.769a19.279,19.279,0,0,1,3.81-1.066,17.86,17.86,0,0,1,19.732,11.308c.052.122.07.245.122.367a3.8,3.8,0,0,0-1.748-.332,11.043,11.043,0,0,1-2.01-.052c-.157-.035-.3.1-.437.035.087-.14.21-.28-.052-.367a.137.137,0,0,1-.087-.192c.07-.157,0-.227-.14-.3-.157-.07-.227.052-.3.14-.192.227-.227.594-.559.717-.087,0-.192.018-.28.018H459.13c-.1,0-.21-.018-.315-.018,0-.087-.035-.227.017-.262a.88.88,0,0,0,.367-.839,1.14,1.14,0,0,0-.21-.734c-.1-.14-.175-.192-.315-.017s-.262.437-.507.437c-.245.017-.28.122-.332.3-.122.315-.227.647-.682.542-.157-.035-.227.087-.315.192a1.589,1.589,0,0,1-.315.367.337.337,0,0,1-.227,0c-.052-.227.157-.35.245-.507a1.582,1.582,0,0,0,.122-1.014c-.087-.3,0-.664-.28-.909-.017-.017.035-.122.07-.175a.422.422,0,0,0,.1-.349c-.035-.122.052-.192.14-.262a3.07,3.07,0,0,1,1.748-.437,1.757,1.757,0,0,0,.419-.07c.21-.087.4-.315.664-.017a.427.427,0,0,0,.7-.122c.052-.07.087-.157.175-.192a.405.405,0,0,0,.087-.647c-.052-.035-.122-.087-.14-.035-.1.35-.437.192-.664.315-.07.035-.192.157-.262,0a.2.2,0,0,1,.157-.262c.157-.035.192-.157.192-.3-.087-.087-.192.07-.3-.035.035-.507.577-.8.612-1.346-.454.052-.717.3-.717.664-.017.437-.157.559-.559.437h0c-.035-.1.052-.28-.122-.315-.14-.035-.052.175-.175.21a.823.823,0,0,0-.227-.262,1.253,1.253,0,0,1-.367-1.206c.035-.175-.07-.21-.157-.262-.1-.07-.175-.07-.245.07a2.414,2.414,0,0,1-.315.35c.035-.4-.035-.647-.35-.786-.07-.035-.1-.122-.157-.192-.052-.1-.1-.21.1-.175.192.035.192-.14.14-.227a2.6,2.6,0,0,1-.35-.926c-.017-.07-.07-.175-.157-.175-.332,0-.14-.21-.1-.367-.315.1-.367.017-.227-.21.017-.035.035-.087.052-.122s.017-.052.035-.087c-.017.017-.052.035-.07.052C455.845,483.188,455.827,482.839,455.6,482.769Z" transform="translate(-444.572 -481.449)" fill="#777e90"/>
    <path id="Path_11101" data-name="Path 11101" d="M474.538,619.495c.017.315.3.507.245.874-.07.472-.577,1.223-1.049,1.293a2.3,2.3,0,0,1-.979.14c-.192-.052-.315.122-.4.28-.087.175,0,.28.122.4a.9.9,0,0,1,.262.315.585.585,0,0,1-.472.909c-.122.018-.28-.157-.4-.262-.14-.14-.419-.3-.472-.227a.571.571,0,0,0-.052.647,1.1,1.1,0,0,0,.3.4c.21.122.227.367.262.577.017.14-.07.157-.175.1-.087-.052-.21-.1-.245-.192-.122-.385-.507-.664-.454-1.136.035-.3-.14-.559-.175-.839-.035-.175-.14-.1-.227-.052-.175.1-.245.07-.245-.14,0-.349-.28-.594-.454-.839-.07-.087-.489.017-.594.157a3.64,3.64,0,0,1-.891.752.45.45,0,0,0-.227.437,1.248,1.248,0,0,1-.035.35c-.052.21-.192.419-.4.437-.175.035-.192-.227-.262-.367a2.688,2.688,0,0,1-.454-1.748c-.315.245-.437.157-.612-.087a.813.813,0,0,0-.821-.4,1.52,1.52,0,0,1-1.136-.122c-.017-.017-.07,0-.1.018a.627.627,0,0,1-.769-.367c-.07-.122-.175-.262-.315-.157-.122.087-.052.245.035.332a2.275,2.275,0,0,1,.315.4c.157.28.367.28.594.087.1-.087.21-.21.28.035,0,.018.017.018.017.035.227.157.664.21.262.664a1.991,1.991,0,0,1-.629.577c-.4.21-.786.454-1.206.664a.448.448,0,0,1-.332.07,1.355,1.355,0,0,0-.315-.891c-.35-.437-.577-.944-.874-1.4a.257.257,0,0,0-.35-.122c-.017-.052-.052-.07-.1-.035.017.017.052.035.07.07a15.74,15.74,0,0,0,.664,1.468,2.847,2.847,0,0,0,.856.979c0,.262.14.35.384.3.14-.035.3-.052.437-.087.1-.018.21-.122.28-.018a.347.347,0,0,1,0,.367,3.722,3.722,0,0,1-.8,1.084,5.311,5.311,0,0,0-.577.489.993.993,0,0,0-.315,1.066c.245.909.21,1-.507,1.538-.192.14-.315.262-.21.542a.391.391,0,0,1-.21.559c-.07.018-.14.07-.14.14,0,.385-.28.629-.437.926a.749.749,0,0,1-.7.437,9.222,9.222,0,0,1-.979-.07c-.122,0-.157-.087-.192-.192a2.319,2.319,0,0,0-.4-.8.611.611,0,0,1-.14-.384,2.766,2.766,0,0,0-.384-1.1.776.776,0,0,1,.052-.821,1.481,1.481,0,0,0-.192-1.4c-.28-.28-.454-.524-.245-.944.122-.262-.035-.419-.35-.454-.087-.017-.192.035-.262-.052-.245-.367-.559-.175-.874-.122-.594.1-1.223.315-1.765-.175a1.072,1.072,0,0,1-.3-.332,1.4,1.4,0,0,0-.472-.542.391.391,0,0,1-.157-.542,1.007,1.007,0,0,0,.122-.7,1.522,1.522,0,0,1,.664-1.328c.157-.14.332-.262.367-.472a.735.735,0,0,1,.315-.437.534.534,0,0,0,.262-.472c.752,0,1.5-.018,2.255-.018h.3a.212.212,0,0,1,.07.332c-.175.245,0,.315.157.367a1.925,1.925,0,0,1,.7.367c.175.14.437.332.594-.087a.266.266,0,0,1,.419-.087c.472.4,1.066.227,1.59.315a.213.213,0,0,0,.21-.1,1.664,1.664,0,0,0,.262-.629c.035-.21-.035-.3-.28-.3-.28,0-.594.087-.839-.14,1.486,0,2.971-.017,4.457-.017h9.3A.884.884,0,0,1,474.538,619.495Z" transform="translate(-442.485 -595.367)" fill="#f1f2f2"/>
    <path id="Path_11102" data-name="Path 11102" d="M430.262,494.325c.419.1.559,0,.559-.437.017-.367.262-.594.717-.664-.035.524-.577.821-.612,1.346.087.1.192-.07.3.035a.266.266,0,0,1-.192.3.2.2,0,0,0-.157.262c.052.157.192.035.262,0,.21-.1.542.035.664-.315.017-.052.1-.017.14.035a.405.405,0,0,1-.087.647.312.312,0,0,0-.175.192.436.436,0,0,1-.7.122c-.262-.315-.454-.087-.664.017a1.175,1.175,0,0,1-.419.07,2.938,2.938,0,0,0-1.748.437c-.087.07-.175.14-.14.262a.373.373,0,0,1-.1.35c-.035.052-.087.157-.07.175.28.245.21.594.28.909a1.582,1.582,0,0,1-.122,1.014c-.087.175-.3.28-.245.507-.979,0-1.975.017-2.954.017-1.223,0-2.464-.017-3.688-.017a7.112,7.112,0,0,1,.3-1.363c-.245.14-.28.262-.3.384h-.07a.531.531,0,0,1,.052-.367,2.308,2.308,0,0,0,.157-.979,1.5,1.5,0,0,1,.315-1.136,4.98,4.98,0,0,1,.839-.769.919.919,0,0,0,.384-.594,1.189,1.189,0,0,1,.262-.682,2.826,2.826,0,0,0,.4-1.171,4.444,4.444,0,0,1,.245-.821c.07-.175.28-.437-.122-.542-.017,0-.017-.1-.017-.157,0-.157.1-.227.21-.3a18.392,18.392,0,0,1,2.919-1.643.69.69,0,0,1,.367-.07c.227.07.245.4.524.385.017.017.035.017.035.035-.017.035-.017.087-.052.122-.14.227-.087.332.227.21-.035.157-.227.367.1.367.087,0,.14.087.157.175a2.482,2.482,0,0,0,.35.926.143.143,0,0,1-.14.227c-.21-.035-.157.07-.1.175a.427.427,0,0,0,.157.192c.315.14.4.384.349.786a2.413,2.413,0,0,0,.315-.35c.07-.14.14-.122.245-.07.087.052.192.087.157.262a1.179,1.179,0,0,0,.367,1.206.671.671,0,0,1,.227.262c.1-.035.017-.245.175-.21.192-.017.1.157.122.245a.09.09,0,0,0-.122.052s0,.035.017.035C430.227,494.43,430.244,494.377,430.262,494.325Z" transform="translate(-416.035 -487.989)" fill="#f1f2f2"/>
    <path id="Path_11106" data-name="Path 11106" d="M404.9,500.6c0,.052,0,.157.017.157.4.1.192.367.122.542-.1.28-.157.559-.245.821a2.742,2.742,0,0,1-.4,1.171,1.234,1.234,0,0,0-.262.682,1.044,1.044,0,0,1-.384.594,4.389,4.389,0,0,0-.839.769,1.576,1.576,0,0,0-.315,1.136,2.307,2.307,0,0,1-.157.979.675.675,0,0,0-.052.367c-.262.28-.227.664-.332,1-.629,0-1.241.017-1.87.017a3.5,3.5,0,0,0-1.783.332,16.721,16.721,0,0,1,2.552-4.806,17.5,17.5,0,0,1,3.548-3.548C404.622,500.722,404.727,500.6,404.9,500.6Z" transform="translate(-397.369 -497.253)" fill="#777e90"/>
    <path id="Path_11107" data-name="Path 11107" d="M480.934,619.222c.245.227.559.14.839.14.245,0,.315.087.28.3a1.663,1.663,0,0,1-.262.629.213.213,0,0,1-.21.1c-.524-.1-1.119.087-1.59-.315a.258.258,0,0,0-.419.087c-.157.419-.437.21-.594.087a1.681,1.681,0,0,0-.7-.367c-.157-.035-.35-.122-.157-.367a.223.223,0,0,0-.07-.332C479.011,619.187,479.972,619.169,480.934,619.222Z" transform="translate(-463.089 -595.112)" fill="#777e90"/>
    <path id="Path_11108" data-name="Path 11108" d="M461,538.513a1.592,1.592,0,0,0,.315-.367c.07-.1.157-.227.315-.192.454.1.559-.227.682-.542.07-.175.1-.28.332-.3s.367-.28.507-.437c.14-.175.21-.122.315.018a1.072,1.072,0,0,1,.21.734.957.957,0,0,1-.367.839c-.052.035-.017.175-.017.262C462.521,538.548,461.752,538.548,461,538.513Z" transform="translate(-449.028 -526.934)" fill="#eff1f2"/>
    <path id="Path_11109" data-name="Path 11109" d="M560.5,543.526c.332-.122.367-.472.559-.717.07-.087.14-.227.3-.14.122.052.21.14.14.3-.052.087,0,.157.087.192.262.1.122.227.052.367A6.162,6.162,0,0,1,560.5,543.526Z" transform="translate(-531.138 -531.947)" fill="#ecf0f2"/>
    <path id="Path_11110" data-name="Path 11110" d="M420.445,540.284c.017-.122.052-.245.3-.385a7.729,7.729,0,0,0-.3,1.363H420.2A4.722,4.722,0,0,0,420.445,540.284Z" transform="translate(-415.359 -529.685)" fill="#777e90"/>
    <path id="Path_11111" data-name="Path 11111" d="M419.7,542.017a4.461,4.461,0,0,1-.245.979H419.3c.1-.332.07-.717.332-1C419.65,542.017,419.667,542.017,419.7,542.017Z" transform="translate(-414.616 -531.417)" fill="#d4e8f1"/>
    <path id="Path_11112" data-name="Path 11112" d="M414.421,619.435a3.838,3.838,0,0,1-1.258.1.294.294,0,0,1-.262-.122c.472,0,.961-.018,1.433-.018C414.351,619.417,414.386,619.417,414.421,619.435Z" transform="translate(-409.335 -595.29)" fill="#d4e8f1"/>
    <path id="Path_11113" data-name="Path 11113" d="M430.074,619.252a.963.963,0,0,1-.874,0A1.845,1.845,0,0,1,430.074,619.252Z" transform="translate(-422.786 -595.125)" fill="#777e90"/>
    <path id="Path_11114" data-name="Path 11114" d="M407.864,619.252a.454.454,0,0,1-.664,0A1.077,1.077,0,0,1,407.864,619.252Z" transform="translate(-404.631 -595.125)" fill="#777e90"/>
    <path id="Path_11115" data-name="Path 11115" d="M399.98,618.5c.035.227-.1.28-.28.28h0a2.144,2.144,0,0,0,.035-.332A.289.289,0,0,1,399.98,618.5Z" transform="translate(-398.441 -594.493)" fill="#777e90"/>
    <path id="Path_11116" data-name="Path 11116" d="M582.783,619.233c-.07.175-.28.122-.419.245-.052.052-.018-.122-.018-.192A.639.639,0,0,1,582.783,619.233Z" transform="translate(-549.157 -595.14)" fill="#777e90"/>
    <path id="Path_11117" data-name="Path 11117" d="M398.762,617.657a2.135,2.135,0,0,0-.035.332c-.175-.122-.175-.315-.227-.489A.527.527,0,0,1,398.762,617.657Z" transform="translate(-397.451 -593.722)" fill="#777e90"/>
    <path id="Path_11118" data-name="Path 11118" d="M421.187,619.309a.3.3,0,0,0-.087-.035c.07-.052.14-.017.21.018C421.257,619.291,421.222,619.309,421.187,619.309Z" transform="translate(-416.101 -595.164)" fill="#63b7da"/>
    <path id="Path_11119" data-name="Path 11119" d="M403.9,619.252l-.1-.052A.285.285,0,0,0,403.9,619.252Z" transform="translate(-401.825 -595.125)" fill="#63b7da"/>
    <path id="Path_11120" data-name="Path 11120" d="M476.517,619.318H476.5V619.3Z" transform="translate(-461.819 -595.208)" fill="#63b7da"/>
    <path id="Path_11121" data-name="Path 11121" d="M458.6,491.052c.017-.017.052-.035.07-.052-.017.035-.017.052-.035.087A.038.038,0,0,0,458.6,491.052Z" transform="translate(-447.047 -489.331)" fill="#f1f2f2"/>
    <path id="Path_11122" data-name="Path 11122" d="M498.935,628.174a.252.252,0,0,1,.35.122c.315.454.524.979.874,1.4a1.355,1.355,0,0,1,.315.891l-.052.052a2.7,2.7,0,0,1-.856-.979,15.764,15.764,0,0,1-.664-1.468A.061.061,0,0,0,498.935,628.174Z" transform="translate(-480.304 -602.509)" fill="#777e90"/>
    <path id="Path_11123" data-name="Path 11123" d="M498.57,628.047c-.017-.017-.052-.035-.07-.07.052-.052.087-.017.1.035Z" transform="translate(-479.974 -602.347)" fill="#56bfea"/>
    <path id="Path_11124" data-name="Path 11124" d="M473.322,517.669a.111.111,0,0,1-.1.087.061.061,0,0,1-.017-.035c.035-.052.07-.07.122-.052Z" transform="translate(-459.096 -511.333)" fill="#55bfea"/>
  </g>
</svg>
